<?xml version="1.0" encoding="UTF-8" standalone="no"?>
<svg xmlns="http://www.w3.org/2000/svg" xmlns:xlink="http://www.w3.org/1999/xlink" clip-rule="evenodd" stroke-miterlimit="10" viewBox="0 0 577.29 566.93">
    <desc>SVG generated by Lineform</desc>
    <defs/>
    <g>
        <path d="M 318.08 258.04 L 329.26 227.27 " stroke="#666666" stroke-width="6.00" fill="none" id="Graphic 6"/>
        <text xml:space="preserve" font-family="Liberation Sans" font-size="10.00" fill="#4C4C4C" transform="matrix(0.981308, 0, 0, 0.981308, 0, 0)" id="Rect 37 (1)">
            <tspan x="268.22" y="48.55">Terlamenbocht</tspan>
        </text>
        <path d="M 327.63 55.33 C 333.18 55.67 337.61 56.31 342.39 60.56 C 354.90 71.70 368.76 85.46 380.31 93.77 C 387.69 99.07 427.23 113.75 449.43 122.52 C 453.91 124.29 457.02 126.14 456.74 130.95 C 456.53 134.67 454.40 135.98 451.85 137.69 C 445.91 141.68 443.50 143.18 437.41 147.41 C 434.35 149.53 432.01 153.67 429.84 157.75 C 428.45 160.37 422.65 165.12 419.93 166.96 C 386.18 189.67 352.63 212.58 318.89 235.29 C 316.53 236.88 313.48 238.74 312.89 242.07 C 312.25 245.66 318.82 250.11 318.17 256.79 C 317.84 260.24 315.23 262.21 312.82 263.78 C 265.50 294.61 192.01 344.34 144.59 375.07 C 139.36 378.46 138.62 382.17 138.69 386.39 C 138.80 393.93 150.98 400.56 154.55 403.12 C 156.31 404.39 167.52 410.95 174.21 415.75 C 182.36 421.59 192.29 429.59 197.73 438.40 C 202.36 445.88 205.25 457.53 199.82 464.45 C 196.16 469.10 190.36 471.80 184.60 473.20 C 174.59 475.62 166.08 477.73 154.76 477.06 C 144.46 476.45 132.06 467.83 128.21 461.70 C 117.22 444.18 107.94 425.68 97.84 407.39 C 94.63 401.58 94.36 394.32 96.13 387.12 C 97.83 380.22 103.50 374.41 109.39 370.43 C 157.37 337.98 205.04 305.71 253.35 273.07 C 255.09 271.90 256.21 270.11 254.35 267.21 C 253.82 266.38 253.49 265.70 252.92 264.78 C 252.32 263.82 252.67 262.36 253.05 261.72 C 258.57 252.33 264.97 242.35 270.96 232.45 C 276.69 222.99 290.91 197.43 296.60 182.28 C 302.42 166.80 300.23 152.16 296.50 141.53 C 285.80 111.02 282.58 102.16 279.09 93.33 C 277.74 89.90 278.07 88.22 279.35 84.70 C 280.31 82.06 281.01 81.76 285.15 78.59 C 290.28 74.66 291.30 73.90 304.28 65.19 C 316.79 56.78 318.53 55.08 326.82 55.32 Z M 327.63 55.33 " stroke="#000000" stroke-width="7.87" fill="none" id="Graphic 5"/>
        <path d="M 198.59 442.21 C 191.79 430.45 183.03 423.95 178.63 421.49 C 166.73 414.83 154.44 410.62 142.54 403.96 C 130.85 395.61 128.79 391.76 128.96 386.02 C 129.09 381.42 128.91 374.60 136.48 369.50 C 173.36 344.65 288.06 270.19 289.74 269.07 C 291.50 267.89 290.06 258.73 289.66 253.61 C 289.46 250.95 296.25 247.54 318.53 232.45 " stroke="#000000" stroke-width="3.18" fill="none" id="Graphic 11"/>
        <g>
            <path d="M 271.82 308.56 L 278.02 318.45 L 256.99 324.92 Z M 271.82 308.56 " fill-rule="non-zero" fill="#FF0000" id="Graphic 28"/>
            <g>
                <path d="M 236.07 299.28 L 240.26 305.61 L 233.93 309.79 L 229.75 303.47 Z M 236.07 299.28 " fill-rule="non-zero" fill="#000000" id="Rect 24"/>
                <path d="M 229.75 303.47 L 233.93 309.79 L 227.61 313.98 L 223.42 307.65 Z M 229.75 303.47 " fill-rule="non-zero" fill="#FFFFFF" id="Rect 24 (1)"/>
                <path d="M 223.42 307.65 L 227.61 313.98 L 221.28 318.17 L 217.10 311.84 Z M 223.42 307.65 " fill-rule="non-zero" fill="#000000" id="Rect 24 (2)"/>
                <path d="M 240.22 305.55 L 244.41 311.88 L 238.08 316.06 L 233.90 309.74 Z M 240.22 305.55 " fill-rule="non-zero" fill="#FFFFFF" id="Rect 24 (3)"/>
                <path d="M 227.57 313.92 L 231.76 320.25 L 225.43 324.44 L 221.25 318.11 Z M 227.57 313.92 " fill-rule="non-zero" fill="#FFFFFF" id="Rect 24 (4)"/>
                <path d="M 233.86 309.68 L 238.05 316.01 L 231.72 320.20 L 227.54 313.87 Z M 233.86 309.68 " fill-rule="non-zero" fill="#000000" id="Rect 24 (5)"/>
                <path d="M 244.37 311.82 L 248.56 318.15 L 242.23 322.34 L 238.05 316.01 Z M 244.37 311.82 " fill-rule="non-zero" fill="#000000" id="Rect 24 (11)"/>
                <path d="M 238.05 316.01 L 242.23 322.34 L 235.91 326.52 L 231.72 320.20 Z M 238.05 316.01 " fill-rule="non-zero" fill="#FFFFFF" id="Rect 24 (11)"/>
                <path d="M 231.72 320.20 L 235.91 326.52 L 229.58 330.71 L 225.40 324.38 Z M 231.72 320.20 " fill-rule="non-zero" fill="#000000" id="Rect 24 (11)"/>
                <path d="M 248.52 318.09 L 252.71 324.42 L 246.38 328.61 L 242.20 322.28 Z M 248.52 318.09 " fill-rule="non-zero" fill="#FFFFFF" id="Rect 24 (11)"/>
                <path d="M 235.87 326.47 L 240.06 332.79 L 233.73 336.98 L 229.55 330.65 Z M 235.87 326.47 " fill-rule="non-zero" fill="#FFFFFF" id="Rect 24 (11)"/>
                <path d="M 242.16 322.22 L 246.35 328.55 L 240.02 332.74 L 235.83 326.41 Z M 242.16 322.22 " fill-rule="non-zero" fill="#000000" id="Rect 24 (11)"/>
                <path d="M 252.82 324.11 L 257.01 330.43 L 250.68 334.62 L 246.50 328.29 Z M 252.82 324.11 " fill-rule="non-zero" fill="#000000" id="Rect 24 (17)"/>
                <path d="M 246.50 328.29 L 250.68 334.62 L 244.36 338.81 L 240.17 332.48 Z M 246.50 328.29 " fill-rule="non-zero" fill="#FFFFFF" id="Rect 24 (17)"/>
                <path d="M 240.17 332.48 L 244.36 338.81 L 238.03 342.99 L 233.84 336.67 Z M 240.17 332.48 " fill-rule="non-zero" fill="#000000" id="Rect 24 (17)"/>
            </g>
        </g>
        <ellipse cx="161.44" cy="384.67" rx="10.50" ry="10.50" fill="#FFFFFF" stroke="#000000" stroke-width="0.61" id="Oval 36 (1)"/>
        <text xml:space="preserve" font-family="Liberation Sans" font-size="10.00" transform="matrix(0.981308, 0, 0, 0.981308, 0, 0)" id="Rect 37 (1)">
            <tspan x="161.73" y="395.71">1</tspan>
        </text>
        <ellipse cx="138.75" cy="385.78" rx="3.63" ry="3.63" fill="#FFFFFF" stroke="#000000" stroke-width="0.81" id="Oval 39 (12)"/>
        <ellipse cx="202.06" cy="459.72" rx="3.63" ry="3.63" fill="#FFFFFF" stroke="#000000" stroke-width="0.81" id="Oval 39 (12)"/>
        <ellipse cx="143.94" cy="473.70" rx="3.63" ry="3.63" fill="#FFFFFF" stroke="#000000" stroke-width="0.81" id="Oval 39 (12)"/>
        <ellipse cx="95.52" cy="389.75" rx="3.63" ry="3.63" fill="#FFFFFF" stroke="#000000" stroke-width="0.81" id="Oval 39 (12)"/>
        <ellipse cx="253.76" cy="265.66" rx="3.63" ry="3.63" fill="#FFFFFF" stroke="#000000" stroke-width="0.81" id="Oval 39 (12)"/>
        <ellipse cx="300.24" cy="165.88" rx="3.63" ry="3.63" fill="#FFFFFF" stroke="#000000" stroke-width="0.81" id="Oval 39 (12)"/>
        <ellipse cx="301.85" cy="66.78" rx="3.63" ry="3.63" fill="#FFFFFF" stroke="#000000" stroke-width="0.81" id="Oval 39 (12)"/>
        <ellipse cx="456.67" cy="130.15" rx="3.63" ry="3.63" fill="#FFFFFF" stroke="#000000" stroke-width="0.81" id="Oval 39 (12)"/>
        <ellipse cx="432.21" cy="153.69" rx="3.63" ry="3.63" fill="#FFFFFF" stroke="#000000" stroke-width="0.81" id="Oval 39 (12)"/>
        <ellipse cx="315.85" cy="248.48" rx="3.63" ry="3.63" fill="#FFFFFF" stroke="#000000" stroke-width="0.81" id="Oval 39 (12)"/>
        <text xml:space="preserve" font-family="Liberation Sans" font-size="10.00" fill="#4C4C4C" transform="matrix(0.981308, 0, 0, 0.981308, 0, 0)" id="Rect 37 (1)">
            <tspan x="455.97" y="102.44">Bolderberghaarspeld-</tspan>
            <tspan x="455.97" y="113.44">bocht</tspan>
        </text>
        <text xml:space="preserve" font-family="Liberation Sans" font-size="10.00" fill="#4C4C4C" transform="matrix(0.981308, 0, 0, 0.981308, 0, 0)" id="Rect 37 (1)">
            <tspan x="451.62" y="161.99">Jochen Rindtbocht</tspan>
        </text>
        <text xml:space="preserve" font-family="Liberation Sans" font-size="10.00" fill="#4C4C4C" transform="matrix(0.981308, 0, 0, 0.981308, 0, 0)" id="Rect 37 (1)">
            <tspan x="339.09" y="250.82">Jackie Ickxbocht</tspan>
        </text>
        <text xml:space="preserve" font-family="Liberation Sans" font-size="10.00" fill="#4C4C4C" transform="matrix(0.981308, 0, 0, 0.981308, 0, 0)" id="Rect 37 (1)">
            <tspan x="177.69" y="388.20">Earste Links</tspan>
        </text>
        <text xml:space="preserve" font-family="Liberation Sans" font-size="10.00" fill="#4C4C4C" transform="matrix(0.981308, 0, 0, 0.981308, 0, 0)" id="Rect 37 (1)">
            <tspan x="210.67" y="494.84">Sterrenwachtbocht</tspan>
        </text>
        <ellipse cx="219.39" cy="463.34" rx="10.50" ry="10.50" fill="#FFFFFF" stroke="#000000" stroke-width="0.61" id="Oval 36 (1)"/>
        <text xml:space="preserve" font-family="Liberation Sans" font-size="10.00" transform="matrix(0.981308, 0, 0, 0.981308, 0, 0)" id="Rect 37 (1)">
            <tspan x="220.79" y="475.89">2</tspan>
        </text>
        <ellipse cx="137.61" cy="491.98" rx="10.50" ry="10.50" fill="#FFFFFF" stroke="#000000" stroke-width="0.61" id="Oval 36 (1)"/>
        <text xml:space="preserve" font-family="Liberation Sans" font-size="10.00" transform="matrix(0.981308, 0, 0, 0.981308, 0, 0)" id="Rect 37 (1)">
            <tspan x="137.45" y="505.07">3</tspan>
        </text>
        <ellipse cx="77.50" cy="386.56" rx="10.50" ry="10.50" fill="#FFFFFF" stroke="#000000" stroke-width="0.61" id="Oval 36 (1)"/>
        <text xml:space="preserve" font-family="Liberation Sans" font-size="10.00" transform="matrix(0.981308, 0, 0, 0.981308, 0, 0)" id="Rect 37 (1)">
            <tspan x="76.20" y="397.64">4</tspan>
        </text>
        <ellipse cx="233.68" cy="262.72" rx="10.50" ry="10.50" fill="#FFFFFF" stroke="#000000" stroke-width="0.61" id="Oval 36 (1)"/>
        <text xml:space="preserve" font-family="Liberation Sans" font-size="10.00" transform="matrix(0.981308, 0, 0, 0.981308, 0, 0)" id="Rect 37 (1)">
            <tspan x="235.35" y="271.44">5</tspan>
        </text>
        <ellipse cx="280.35" cy="163.86" rx="10.50" ry="10.50" fill="#FFFFFF" stroke="#000000" stroke-width="0.61" id="Oval 36 (1)"/>
        <text xml:space="preserve" font-family="Liberation Sans" font-size="10.00" transform="matrix(0.981308, 0, 0, 0.981308, 0, 0)" id="Rect 37 (1)">
            <tspan x="282.91" y="170.69">6</tspan>
        </text>
        <ellipse cx="311.71" cy="80.75" rx="10.50" ry="10.50" fill="#FFFFFF" stroke="#000000" stroke-width="0.61" id="Oval 36 (1)"/>
        <text xml:space="preserve" font-family="Liberation Sans" font-size="10.00" transform="matrix(0.981308, 0, 0, 0.981308, 0, 0)" id="Rect 37 (1)">
            <tspan x="314.87" y="86.00">7</tspan>
        </text>
        <ellipse cx="473.88" cy="124.07" rx="10.50" ry="10.50" fill="#FFFFFF" stroke="#000000" stroke-width="0.61" id="Oval 36 (1)"/>
        <text xml:space="preserve" font-family="Liberation Sans" font-size="10.00" transform="matrix(0.981308, 0, 0, 0.981308, 0, 0)" id="Rect 37 (1)">
            <tspan x="480.13" y="130.15">8</tspan>
        </text>
        <ellipse cx="414.12" cy="148.05" rx="10.50" ry="10.50" fill="#FFFFFF" stroke="#000000" stroke-width="0.61" id="Oval 36 (1)"/>
        <text xml:space="preserve" font-family="Liberation Sans" font-size="10.00" transform="matrix(0.981308, 0, 0, 0.981308, 0, 0)" id="Rect 37 (1)">
            <tspan x="419.23" y="154.58">9</tspan>
        </text>
        <ellipse cx="334.25" cy="261.35" rx="10.50" ry="10.50" fill="#FFFFFF" stroke="#000000" stroke-width="0.61" id="Oval 36 (1)"/>
        <text xml:space="preserve" font-family="Liberation Sans" font-size="10.00" transform="matrix(0.981308, 0, 0, 0.981308, 0, 0)" id="Rect 37 (1)">
            <tspan x="335.06" y="270.04">10</tspan>
        </text>
        <text xml:space="preserve" font-family="Liberation Sans" font-size="10.00" fill="#4C4C4C" transform="matrix(0.981308, 0, 0, 0.981308, 0, 0)" id="Rect 37 (1)">
            <tspan x="99.32" y="521.88">Kanaalbocht</tspan>
        </text>
        <text xml:space="preserve" font-family="Liberation Sans" font-size="10.00" fill="#4C4C4C" transform="matrix(0.981308, 0, 0, 0.981308, 0, 0)" id="Rect 37 (1)">
            <tspan x="60.37" y="365.25">Lucien</tspan>
            <tspan x="32.58" y="376.25">Bianchibocht</tspan>
        </text>
        <text xml:space="preserve" font-family="Liberation Sans" font-size="10.00" fill="#4C4C4C" transform="matrix(0.981308, 0, 0, 0.981308, 0, 0)" id="Rect 37 (1)">
            <tspan x="222.37" y="240.96">Kleine</tspan>
            <tspan x="213.47" y="251.96">Chicane</tspan>
        </text>
        <text xml:space="preserve" font-family="Liberation Sans" font-size="10.00" fill="#4C4C4C" transform="matrix(0.981308, 0, 0, 0.981308, 0, 0)" id="Rect 37 (1)">
            <tspan x="244.63" y="170.78">Butte</tspan>
        </text>
    </g>
</svg>