<?xml version="1.0" encoding="UTF-8" standalone="no"?>
<!-- Created with Inkscape (http://www.inkscape.org/) -->

<svg
   xmlns:dc="http://purl.org/dc/elements/1.1/"
   xmlns:cc="http://creativecommons.org/ns#"
   xmlns:rdf="http://www.w3.org/1999/02/22-rdf-syntax-ns#"
   xmlns:svg="http://www.w3.org/2000/svg"
   xmlns="http://www.w3.org/2000/svg"
   xmlns:sodipodi="http://sodipodi.sourceforge.net/DTD/sodipodi-0.dtd"
   xmlns:inkscape="http://www.inkscape.org/namespaces/inkscape"
   id="svg2"
   version="1.1"
   inkscape:version="0.48.1 "
   width="477.7724"
   height="311.34692"
   sodipodi:docname="Circuit_Bremgarten.svg">
  <metadata
     id="metadata8">
    <rdf:RDF>
      <cc:Work
         rdf:about="">
        <dc:format>image/svg+xml</dc:format>
        <dc:type
           rdf:resource="http://purl.org/dc/dcmitype/StillImage" />
        <dc:title />
      </cc:Work>
    </rdf:RDF>
  </metadata>
  <defs
     id="defs6" />
  <sodipodi:namedview
     pagecolor="#ffffff"
     bordercolor="#666666"
     borderopacity="1"
     objecttolerance="10"
     gridtolerance="10"
     guidetolerance="10"
     inkscape:pageopacity="0"
     inkscape:pageshadow="2"
     inkscape:window-width="1366"
     inkscape:window-height="708"
     id="namedview4"
     showgrid="false"
     showguides="true"
     inkscape:guide-bbox="true"
     inkscape:zoom="1.6733745"
     inkscape:cx="238.8862"
     inkscape:cy="155.67346"
     inkscape:window-x="-4"
     inkscape:window-y="-4"
     inkscape:window-maximized="1"
     inkscape:current-layer="svg2"
     fit-margin-top="10"
     fit-margin-left="10"
     fit-margin-right="10"
     fit-margin-bottom="10" />
  <path
     style="fill:none;stroke:#000000;stroke-width:2.417768"
     id="path2453"
     d="m 241.19796,281.77027 14.10837,-7.75342 40.54923,0 10.26063,7.98486"
     inkscape:connector-curvature="0" />
  <path
     style="fill:none;stroke:#000000;stroke-width:5;stroke-linecap:butt;stroke-linejoin:round;stroke-miterlimit:4;stroke-opacity:1;stroke-dasharray:none"
     d="M 103.8142,238.55754 C 91.31856,235.34487 88.470926,202.31385 88.28693,181.74707 88.15906,167.45394 86.30256,172.47351 81.17622,150.36632 l -17.798131,-30.51686 -18.38798,-5.82941 c -13.44335,-11.65883 -24.29255,-23.317663 -32.17702,-34.976493 -0.66801,-14.67862 17.87292,-30.39456 29.89707,-45.51553 13.05784,0.46569 36.57609,1.92778 53.304571,3.79947 l 48.60537,10.28904 c 25.9307,-0.74329 44.91654,-8.65149 66.02329,-12.46872 25.37777,-11.6477 40.70238,0.91438 67.5233,12.62888 8.16794,6.07513 17.66273,14.26346 23.8476,18.54814 7.4922,5.26871 14.11806,8.80472 24.37756,19.60803 l 30.20696,39.746013 7.41926,18.54813 20.13797,23.84761 12.18878,24.37755 5.82941,16.42835 9.0091,14.83851 c 13.1568,15.17501 -18.55671,19.98121 -29.19195,27.09923 l -20.66793,15.29651 -46.19511,13.89544 c -12.1123,1.21638 -47.95353,2.78184 -56.00734,2.95389 -7.69008,-1.59032 -34.9997,-1.20144 -51.96718,-1.48087 l -29.06181,-21.65295 -34.38207,-21.65295 z"
     id="path3217"
     inkscape:connector-curvature="0"
     sodipodi:nodetypes="csccccccccccccccccccccccccc" />
  <path
     inkscape:connector-curvature="0"
     d="m 333.84413,298.95555 -0.95519,-9.67579 -17.02661,6.56591 17.9818,3.10988 z"
     id="use2900"
     style="fill:#d2232a;stroke:none" />
  <rect
     style="fill:#ffffff;stroke:none"
     id="rect2655"
     y="275.84055"
     x="-324.80145"
     height="9"
     width="27"
     transform="matrix(-0.10097009,-0.99488946,0.99488946,-0.10097009,0,0)" />
  <rect
     style="fill:#000000;stroke:none"
     id="rect2625"
     y="281.84055"
     x="-324.80145"
     height="3"
     width="3"
     transform="matrix(-0.10097009,-0.99488946,0.99488946,-0.10097009,0,0)" />
  <rect
     style="fill:#000000;stroke:none"
     id="rect2627"
     y="281.84055"
     x="-318.80145"
     height="3"
     width="3"
     transform="matrix(-0.10097009,-0.99488946,0.99488946,-0.10097009,0,0)" />
  <rect
     style="fill:#000000;stroke:none"
     id="rect2629"
     y="281.84055"
     x="-312.80145"
     height="3"
     width="3"
     transform="matrix(-0.10097009,-0.99488946,0.99488946,-0.10097009,0,0)" />
  <rect
     style="fill:#000000;stroke:none"
     id="rect2631"
     y="281.84055"
     x="-306.80145"
     height="3"
     width="3"
     transform="matrix(-0.10097009,-0.99488946,0.99488946,-0.10097009,0,0)" />
  <rect
     style="fill:#000000;stroke:none"
     id="rect2633"
     y="281.84055"
     x="-300.80145"
     height="3"
     width="3"
     transform="matrix(-0.10097009,-0.99488946,0.99488946,-0.10097009,0,0)" />
  <rect
     style="fill:#000000;stroke:none"
     id="rect2635"
     y="275.84055"
     x="-324.80145"
     height="3"
     width="3"
     transform="matrix(-0.10097009,-0.99488946,0.99488946,-0.10097009,0,0)" />
  <rect
     style="fill:#000000;stroke:none"
     id="rect2637"
     y="275.84055"
     x="-318.80145"
     height="3"
     width="3"
     transform="matrix(-0.10097009,-0.99488946,0.99488946,-0.10097009,0,0)" />
  <rect
     style="fill:#000000;stroke:none"
     id="rect2639"
     y="275.84055"
     x="-312.80145"
     height="3"
     width="3"
     transform="matrix(-0.10097009,-0.99488946,0.99488946,-0.10097009,0,0)" />
  <rect
     style="fill:#000000;stroke:none"
     id="rect2641"
     y="275.84055"
     x="-306.80145"
     height="3"
     width="3"
     transform="matrix(-0.10097009,-0.99488946,0.99488946,-0.10097009,0,0)" />
  <rect
     style="fill:#000000;stroke:none"
     id="rect2643"
     y="275.84055"
     x="-300.80145"
     height="3"
     width="3"
     transform="matrix(-0.10097009,-0.99488946,0.99488946,-0.10097009,0,0)" />
  <rect
     style="fill:#000000;stroke:none"
     id="rect2645"
     y="278.84055"
     x="-321.80145"
     height="3"
     width="3"
     transform="matrix(-0.10097009,-0.99488946,0.99488946,-0.10097009,0,0)" />
  <rect
     style="fill:#000000;stroke:none"
     id="rect2647"
     y="278.84055"
     x="-321.80145"
     height="3"
     width="3"
     transform="matrix(-0.10097009,-0.99488946,0.99488946,-0.10097009,0,0)" />
  <rect
     style="fill:#000000;stroke:none"
     id="rect2649"
     y="278.84055"
     x="-315.80145"
     height="3"
     width="3"
     transform="matrix(-0.10097009,-0.99488946,0.99488946,-0.10097009,0,0)" />
  <rect
     style="fill:#000000;stroke:none"
     id="rect2651"
     y="278.84055"
     x="-309.80145"
     height="3"
     width="3"
     transform="matrix(-0.10097009,-0.99488946,0.99488946,-0.10097009,0,0)" />
  <rect
     style="fill:#000000;stroke:none"
     id="rect2653"
     y="278.84055"
     x="-303.80145"
     height="3"
     width="3"
     transform="matrix(-0.10097009,-0.99488946,0.99488946,-0.10097009,0,0)" />
  <path
     inkscape:connector-curvature="0"
     d="m 105.55841,238.14011 c 0,1.65685 -1.34315,3 -3,3 -1.65685,0 -3,-1.34315 -3,-3 0,-1.65685 1.34315,-3 3,-3 1.65685,0 3,1.34315 3,3 z"
     id="path2689"
     style="fill:#ffffff;stroke:none" />
  <path
     inkscape:connector-curvature="0"
     d="m 177.61956,257.53767 c 0,1.65685 -1.34315,3 -3,3 -1.65685,0 -3,-1.34315 -3,-3 0,-1.65685 1.34315,-3 3,-3 1.65685,0 3,1.34315 3,3 z"
     id="path2689-1"
     style="fill:#ffffff;stroke:none" />
  <path
     inkscape:connector-curvature="0"
     d="m 261.7978,282.55508 c 0,1.65685 -1.34315,3 -3,3 -1.65685,0 -3,-1.34315 -3,-3 0,-1.65685 1.34315,-3 3,-3 1.65685,0 3,1.34315 3,3 z"
     id="path2689-7"
     style="fill:#ffffff;stroke:none" />
  <path
     inkscape:connector-curvature="0"
     d="m 416.87813,230.98561 c 0,1.65685 -1.34315,3 -3,3 -1.65685,0 -3,-1.34315 -3,-3 0,-1.65685 1.34315,-3 3,-3 1.65685,0 3,1.34315 3,3 z"
     id="path2689-4"
     style="fill:#ffffff;stroke:none" />
  <path
     inkscape:connector-curvature="0"
     d="m 389.54428,173.19363 c 0,1.65685 -1.34315,3 -3,3 -1.65685,0 -3,-1.34315 -3,-3 0,-1.65685 1.34315,-3 3,-3 1.65685,0 3,1.34315 3,3 z"
     id="path2689-0"
     style="fill:#ffffff;stroke:none" />
  <path
     inkscape:connector-curvature="0"
     d="m 329.617,86.603924 c 0,1.65685 -1.34315,3 -3,3 -1.65685,0 -3,-1.34315 -3,-3 0,-1.65685 1.34315,-3 3,-3 1.65685,0 3,1.34315 3,3 z"
     id="path2689-48"
     style="fill:#ffffff;stroke:none" />
  <path
     inkscape:connector-curvature="0"
     d="m 280.29034,47.406887 c 0,1.65685 -1.34315,3 -3,3 -1.65685,0 -3,-1.34315 -3,-3 0,-1.65685 1.34315,-3 3,-3 1.65685,0 3,1.34315 3,3 z"
     id="path2689-8"
     style="fill:#ffffff;stroke:none" />
  <path
     inkscape:connector-curvature="0"
     d="m 84.115,151.0694 c 0,1.65685 -1.343145,3 -3,3 -1.65685,0 -3,-1.34315 -3,-3 0,-1.65685 1.34315,-3 3,-3 1.656855,0 3,1.34315 3,3 z"
     id="path2689-2"
     style="fill:#ffffff;stroke:none" />
  <path
     inkscape:connector-curvature="0"
     d="m 66.368,120.30178 c 0,1.65685 -1.34315,3 -3,3 -1.65685,0 -3,-1.34315 -3,-3 0,-1.65685 1.34315,-3 3,-3 1.65685,0 3,1.34315 3,3 z"
     id="path2689-45"
     style="fill:#ffffff;stroke:none" />
  <path
     inkscape:connector-curvature="0"
     d="m 16,79.519737 c 0,1.65685 -1.34315,3 -3,3 -1.65685,0 -3,-1.34315 -3,-3 0,-1.65685 1.34315,-3 3,-3 1.65685,0 3,1.34315 3,3 z"
     id="path2689-5"
     style="fill:#ffffff;stroke:none" />
  <path
     inkscape:connector-curvature="0"
     d="m 45.986,33.885697 c 0,1.65685 -1.34315,3 -3,3 -1.65685,0 -3,-1.34315 -3,-3 0,-1.65685 1.34315,-3 3,-3 1.65685,0 3,1.34315 3,3 z"
     id="path2689-17"
     style="fill:#ffffff;stroke:none" />
  <path
     inkscape:connector-curvature="0"
     d="m 145.64176,47.125207 c 0,1.65685 -1.34315,3 -3,3 -1.65685,0 -3,-1.34315 -3,-3 0,-1.65685 1.34315,-3 3,-3 1.65685,0 3,1.34315 3,3 z"
     id="path2689-11"
     style="fill:#ffffff;stroke:none" />
  <path
     inkscape:connector-curvature="0"
     d="m 214.65619,34.993777 c 0,1.65685 -1.34315,3 -3,3 -1.65685,0 -3,-1.34315 -3,-3 0,-1.65685 1.34315,-3 3,-3 1.65685,0 3,1.34315 3,3 z"
     id="path2689-52"
     style="fill:#ffffff;stroke:none" />
  <text
     xml:space="preserve"
     style="font-size:12px;font-style:normal;font-weight:normal;line-height:125%;letter-spacing:0px;word-spacing:0px;fill:#000000;fill-opacity:1;stroke:none;font-family:Sans"
     x="147.23329"
     y="275.0137"
     id="text4436"
     sodipodi:linespacing="125%"><tspan
       sodipodi:role="line"
       id="tspan4438"
       x="147.23329"
       y="275.0137">Qurray</tspan></text>
  <text
     xml:space="preserve"
     style="font-size:14px;font-style:normal;font-weight:normal;line-height:125%;letter-spacing:0px;word-spacing:0px;fill:#000000;fill-opacity:1;stroke:none;font-family:Sans"
     x="232.50137"
     y="301.18286"
     id="text4440"
     sodipodi:linespacing="125%"><tspan
       sodipodi:role="line"
       id="tspan4442"
       x="232.50137"
       y="301.18286">Batlehen</tspan></text>
  <text
     xml:space="preserve"
     style="font-size:14px;font-style:normal;font-weight:normal;line-height:125%;letter-spacing:0px;word-spacing:0px;fill:#000000;fill-opacity:1;stroke:none;font-family:Sans"
     x="406.02338"
     y="254.73189"
     id="text4444"
     sodipodi:linespacing="125%"><tspan
       sodipodi:role="line"
       id="tspan4446"
       x="406.02338"
       y="254.73189">Forsthaus</tspan></text>
  <g
     style="font-size:14px;font-style:normal;font-weight:normal;line-height:125%;letter-spacing:0px;word-spacing:0px;fill:#000000;fill-opacity:1;stroke:none;font-family:Sans"
     id="text4448"
     transform="matrix(0.67808469,0,0,1,109.49085,-89.915221)">
    <path
       d="m 273.93994,269.73016 0,-1.17578 4.24512,-0.007 0,3.71875 c -0.6517,0.51953 -1.3239,0.91032 -2.0166,1.17236 -0.69272,0.26204 -1.40366,0.39307 -2.13282,0.39307 -0.98438,0 -1.87874,-0.21078 -2.6831,-0.63233 -0.80437,-0.42155 -1.41162,-1.03108 -1.82178,-1.82861 -0.41016,-0.79752 -0.61523,-1.68847 -0.61523,-2.67285 0,-0.97526 0.20394,-1.88558 0.61181,-2.73096 0.40788,-0.84537 0.99463,-1.47314 1.76026,-1.8833 0.76562,-0.41015 1.64745,-0.61522 2.64551,-0.61524 0.7246,2e-5 1.37971,0.11737 1.96533,0.35206 0.5856,0.23471 1.04475,0.56169 1.37744,0.98095 0.33267,0.41928 0.5856,0.96616 0.75879,1.64063 l -1.19629,0.32812 c -0.1504,-0.51041 -0.33725,-0.91145 -0.56055,-1.20312 -0.22331,-0.29166 -0.54232,-0.52522 -0.95703,-0.70069 -0.41472,-0.17544 -0.87501,-0.26317 -1.38086,-0.26318 -0.60612,10e-6 -1.13021,0.0923 -1.57226,0.27686 -0.44207,0.18457 -0.79867,0.42725 -1.06983,0.72802 -0.27116,0.30079 -0.48193,0.6312 -0.63232,0.99121 -0.25521,0.6198 -0.38282,1.292 -0.38282,2.01661 0,0.89323 0.15381,1.64062 0.46143,2.24218 0.30761,0.60157 0.75537,1.04818 1.34326,1.33985 0.58789,0.29166 1.21224,0.4375 1.87305,0.4375 0.57421,0 1.13476,-0.11052 1.68164,-0.33155 0.54687,-0.22102 0.96158,-0.45686 1.24414,-0.70752 l 0,-1.86621 z"
       id="path4453"
       inkscape:connector-curvature="0" />
    <path
       d="m 279.94873,273.66083 0,-10.02149 1.23047,0 0,10.02149 z"
       id="path4455"
       inkscape:connector-curvature="0" />
    <path
       d="m 287.83057,272.76532 c -0.45574,0.38737 -0.89438,0.66081 -1.31592,0.82031 -0.42155,0.15951 -0.87387,0.23926 -1.35694,0.23926 -0.79752,0 -1.41048,-0.19482 -1.83886,-0.58447 -0.42839,-0.38965 -0.64258,-0.88753 -0.64258,-1.49365 0,-0.35547 0.0809,-0.68018 0.24268,-0.97413 0.16178,-0.29394 0.37369,-0.52978 0.63574,-0.70752 0.26204,-0.17773 0.55712,-0.31217 0.88525,-0.40332 0.24154,-0.0638 0.60612,-0.12532 1.09375,-0.18457 0.99349,-0.11848 1.72493,-0.25976 2.19434,-0.42382 0.005,-0.16862 0.007,-0.27572 0.007,-0.32129 0,-0.5013 -0.11621,-0.85449 -0.34863,-1.05957 -0.31446,-0.27799 -0.78158,-0.41699 -1.40137,-0.417 -0.57878,10e-6 -1.00602,0.10141 -1.28174,0.3042 -0.27571,0.20281 -0.47965,0.5617 -0.61181,1.07666 l -1.20313,-0.16406 c 0.10938,-0.51497 0.28939,-0.93082 0.54004,-1.24756 0.25065,-0.31672 0.61296,-0.56054 1.08692,-0.73144 0.47395,-0.17089 1.02311,-0.25634 1.64746,-0.25635 0.61978,10e-6 1.12336,0.0729 1.51074,0.21875 0.38736,0.14584 0.67219,0.32927 0.85449,0.55029 0.18229,0.22104 0.30989,0.50017 0.38281,0.8374 0.041,0.20965 0.0615,0.5879 0.0615,1.13477 l 0,1.64063 c -10e-6,1.14388 0.0262,1.86735 0.0786,2.17041 0.0524,0.30306 0.15608,0.59358 0.31104,0.87158 l -1.28516,0 c -0.12761,-0.25521 -0.20964,-0.55371 -0.24609,-0.89551 z m -0.10254,-2.74805 c -0.44662,0.1823 -1.11654,0.33725 -2.00977,0.46485 -0.50586,0.0729 -0.86361,0.15495 -1.07324,0.24609 -0.20964,0.0912 -0.37142,0.22445 -0.48535,0.3999 -0.11394,0.17546 -0.1709,0.37028 -0.1709,0.58448 0,0.32812 0.12418,0.60156 0.37256,0.82031 0.24837,0.21875 0.61181,0.32812 1.09033,0.32812 0.47395,0 0.8955,-0.10367 1.26465,-0.31103 0.36913,-0.20736 0.64029,-0.49105 0.81348,-0.85108 0.13215,-0.27799 0.19823,-0.68814 0.19824,-1.23047 z"
       id="path4457"
       inkscape:connector-curvature="0" />
    <path
       d="m 290.39404,271.49384 1.2168,-0.19141 c 0.0684,0.48763 0.25862,0.86133 0.5708,1.12109 0.31217,0.25977 0.74853,0.38965 1.30908,0.38965 0.5651,0 0.98437,-0.11507 1.25782,-0.34521 0.27343,-0.23015 0.41015,-0.50016 0.41015,-0.81006 0,-0.27799 -0.12077,-0.49674 -0.3623,-0.65625 -0.16863,-0.10937 -0.5879,-0.24837 -1.25782,-0.41699 -0.90234,-0.22787 -1.52783,-0.42497 -1.87646,-0.59131 -0.34863,-0.16634 -0.61296,-0.39648 -0.79297,-0.69043 -0.18001,-0.29394 -0.27002,-0.61865 -0.27002,-0.97412 0,-0.32357 0.0741,-0.62321 0.22217,-0.89893 0.14811,-0.27571 0.34977,-0.50471 0.60498,-0.68701 0.1914,-0.14127 0.45231,-0.2609 0.78271,-0.35889 0.33041,-0.098 0.68473,-0.14696 1.06299,-0.14697 0.56966,10e-6 1.06982,0.082 1.50049,0.24609 0.43066,0.16407 0.74853,0.38624 0.95361,0.66651 0.20508,0.28028 0.34635,0.65511 0.42383,1.12451 l -1.20312,0.16406 c -0.0547,-0.37369 -0.21306,-0.66536 -0.4751,-0.875 -0.26205,-0.20963 -0.63233,-0.31445 -1.11084,-0.31445 -0.56511,0 -0.96843,0.0934 -1.20996,0.28027 -0.24154,0.18686 -0.36231,0.40561 -0.36231,0.65625 0,0.15951 0.0501,0.30307 0.15039,0.43067 0.10026,0.13216 0.25749,0.24154 0.47168,0.32812 0.12305,0.0456 0.48535,0.1504 1.08692,0.31445 0.87044,0.23243 1.4777,0.4227 1.82178,0.5708 0.34407,0.14812 0.61409,0.36345 0.81005,0.646 0.19596,0.28256 0.29394,0.63347 0.29395,1.05274 -10e-6,0.41015 -0.11964,0.79638 -0.35889,1.15869 -0.23926,0.3623 -0.58448,0.64257 -1.03564,0.84082 -0.45118,0.19824 -0.96159,0.29736 -1.53125,0.29736 -0.94336,0 -1.66228,-0.19596 -2.15674,-0.58789 -0.49447,-0.39193 -0.81006,-0.97298 -0.94678,-1.74316 z"
       id="path4459"
       inkscape:connector-curvature="0" />
    <path
       d="m 299.021,273.66083 -1.14161,0 0,-10.02149 1.23047,0 0,3.5752 c 0.51953,-0.65169 1.18262,-0.97753 1.98926,-0.97754 0.44661,10e-6 0.8693,0.09 1.26807,0.27002 0.39875,0.18002 0.72688,0.43295 0.98437,0.75879 0.25748,0.32585 0.45914,0.71892 0.60498,1.1792 0.14583,0.46029 0.21875,0.95248 0.21875,1.47656 0,1.24414 -0.30762,2.20573 -0.92285,2.88477 -0.61524,0.67903 -1.35352,1.01855 -2.21484,1.01855 -0.85678,0 -1.52898,-0.35775 -2.0166,-1.07324 z m -0.0137,-3.68457 c 0,0.87044 0.11849,1.49935 0.35547,1.88672 0.38737,0.63346 0.91146,0.95019 1.57227,0.95019 0.53775,0 1.0026,-0.23356 1.39453,-0.70068 0.39192,-0.46712 0.58788,-1.16325 0.58789,-2.08838 -1e-5,-0.94791 -0.18799,-1.64746 -0.56396,-2.09863 -0.37599,-0.45117 -0.83058,-0.67676 -1.36377,-0.67676 -0.53777,0 -1.00261,0.23357 -1.39454,0.70068 -0.39192,0.46713 -0.58789,1.14275 -0.58789,2.02686 z"
       id="path4461"
       inkscape:connector-curvature="0" />
    <path
       d="m 305.66553,273.66083 0,-7.25977 1.10742,0 0,1.10059 c 0.28255,-0.51497 0.54345,-0.85449 0.78271,-1.01856 0.23926,-0.16405 0.50244,-0.24608 0.78955,-0.24609 0.41471,10e-6 0.83626,0.13217 1.26465,0.39648 l -0.42382,1.14161 c -0.30079,-0.17773 -0.60157,-0.2666 -0.90235,-0.26661 -0.26888,10e-6 -0.51042,0.0809 -0.72461,0.24268 -0.21419,0.16179 -0.36686,0.38624 -0.45801,0.67334 -0.13672,0.4375 -0.20508,0.91602 -0.20507,1.43555 l 0,3.80078 z"
       id="path4463"
       inkscape:connector-curvature="0" />
    <path
       d="m 315.11279,273.66083 0,-1.06641 c -0.56511,0.82031 -1.33301,1.23047 -2.30371,1.23047 -0.42839,0 -0.82829,-0.082 -1.19971,-0.24609 -0.37142,-0.16407 -0.64713,-0.37028 -0.82714,-0.61866 -0.18002,-0.24837 -0.30648,-0.55257 -0.3794,-0.91259 -0.0501,-0.24154 -0.0752,-0.62435 -0.0752,-1.14844 l 0,-4.49805 1.23047,0 0,4.02637 c -1e-5,0.64258 0.0251,1.07552 0.0752,1.29883 0.0775,0.32357 0.24153,0.57764 0.49219,0.7622 0.25065,0.18458 0.56054,0.27686 0.92969,0.27686 0.36913,0 0.71549,-0.0946 1.03906,-0.28369 0.32356,-0.18913 0.55256,-0.44661 0.68701,-0.77246 0.13443,-0.32585 0.20165,-0.79867 0.20166,-1.41846 l 0,-3.88965 1.23047,0 0,7.25977 z"
       id="path4465"
       inkscape:connector-curvature="0" />
    <path
       d="m 318.14795,273.66083 0,-7.25977 1.10742,0 0,1.03223 c 0.5332,-0.79752 1.30338,-1.19628 2.31055,-1.19629 0.43749,10e-6 0.83967,0.0786 1.20654,0.23584 0.36686,0.15723 0.64143,0.36345 0.82373,0.61865 0.18229,0.25522 0.30989,0.55828 0.38281,0.90918 0.0456,0.22787 0.0684,0.62663 0.0684,1.19629 l 0,4.46387 -1.23047,0 0,-4.41602 c 0,-0.5013 -0.0478,-0.87613 -0.14355,-1.12451 -0.0957,-0.24837 -0.26547,-0.44661 -0.50928,-0.59473 -0.24382,-0.1481 -0.52979,-0.22216 -0.85791,-0.22216 -0.52409,0 -0.9764,0.16634 -1.35693,0.49902 -0.38054,0.33269 -0.5708,0.96387 -0.5708,1.89355 l 0,3.96485 z"
       id="path4467"
       inkscape:connector-curvature="0" />
    <path
       d="m 325.94092,273.66083 0,-7.25977 1.10742,0 0,1.03223 c 0.5332,-0.79752 1.30338,-1.19628 2.31055,-1.19629 0.43749,10e-6 0.83967,0.0786 1.20654,0.23584 0.36686,0.15723 0.64143,0.36345 0.82373,0.61865 0.18229,0.25522 0.30989,0.55828 0.38281,0.90918 0.0456,0.22787 0.0684,0.62663 0.0684,1.19629 l 0,4.46387 -1.23047,0 0,-4.41602 c 0,-0.5013 -0.0479,-0.87613 -0.14355,-1.12451 -0.0957,-0.24837 -0.26547,-0.44661 -0.50928,-0.59473 -0.24382,-0.1481 -0.52979,-0.22216 -0.85791,-0.22216 -0.52409,0 -0.9764,0.16634 -1.35693,0.49902 -0.38054,0.33269 -0.57081,0.96387 -0.5708,1.89355 l 0,3.96485 z"
       id="path4469"
       inkscape:connector-curvature="0" />
    <path
       d="m 338.70361,271.32294 1.27149,0.15722 c -0.20053,0.74284 -0.57195,1.31934 -1.11426,1.7295 -0.54232,0.41015 -1.23503,0.61523 -2.07813,0.61523 -1.06185,0 -1.90381,-0.32699 -2.52587,-0.98096 -0.62208,-0.65397 -0.93311,-1.57112 -0.93311,-2.75146 0,-1.22135 0.31445,-2.16927 0.94336,-2.84375 0.6289,-0.67447 1.44466,-1.01171 2.44727,-1.01172 0.97069,10e-6 1.76366,0.33041 2.3789,0.99121 0.61523,0.66081 0.92285,1.5905 0.92285,2.78906 0,0.0729 -0.002,0.1823 -0.007,0.32813 l -5.41407,0 c 0.0456,0.79753 0.27116,1.4082 0.67676,1.83203 0.4056,0.42383 0.91146,0.63574 1.51758,0.63574 0.45117,0 0.83626,-0.11849 1.15527,-0.35547 0.31901,-0.23698 0.57194,-0.61523 0.75879,-1.13476 z m -4.04004,-1.98926 4.05372,0 c -0.0547,-0.61067 -0.20965,-1.06868 -0.46485,-1.37402 -0.39193,-0.47396 -0.90007,-0.71094 -1.52441,-0.71094 -0.56511,0 -1.04021,0.18913 -1.4253,0.56738 -0.38509,0.37826 -0.59814,0.88412 -0.63916,1.51758 z"
       id="path4471"
       inkscape:connector-curvature="0" />
    <path
       d="m 341.52686,273.66083 0,-7.25977 1.10058,0 0,1.01856 c 0.22786,-0.35547 0.53092,-0.64144 0.90918,-0.85791 0.37825,-0.21647 0.80892,-0.3247 1.29199,-0.32471 0.53776,10e-6 0.97868,0.11166 1.32276,0.33496 0.34407,0.22331 0.58674,0.53549 0.72802,0.93652 0.57422,-0.84765 1.32161,-1.27147 2.24219,-1.27148 0.72004,10e-6 1.27376,0.19939 1.66113,0.59814 0.38736,0.39877 0.58105,1.01287 0.58106,1.84229 l 0,4.9834 -1.22363,0 0,-4.57324 c -10e-6,-0.49219 -0.0399,-0.84652 -0.11963,-1.06299 -0.0798,-0.21647 -0.22446,-0.39078 -0.43408,-0.52295 -0.20965,-0.13216 -0.45574,-0.19824 -0.73829,-0.19824 -0.51042,0 -0.93425,0.16976 -1.27148,0.50927 -0.33725,0.33953 -0.50587,0.88298 -0.50586,1.63037 l 0,4.21778 -1.23047,0 0,-4.7168 c 0,-0.54687 -0.10026,-0.95702 -0.30078,-1.23047 -0.20052,-0.27343 -0.52865,-0.41015 -0.98437,-0.41015 -0.34636,0 -0.66651,0.0912 -0.96045,0.27343 -0.29395,0.1823 -0.507,0.4489 -0.63916,0.79981 -0.13217,0.35091 -0.19825,0.85677 -0.19825,1.51758 l 0,3.7666 z"
       id="path4473"
       inkscape:connector-curvature="0" />
    <path
       d="m 353.18896,273.66083 0,-7.25977 1.10743,0 0,1.10059 c 0.28255,-0.51497 0.54345,-0.85449 0.78271,-1.01856 0.23926,-0.16405 0.50244,-0.24608 0.78955,-0.24609 0.41471,10e-6 0.83626,0.13217 1.26465,0.39648 l -0.42383,1.14161 c -0.30078,-0.17773 -0.60156,-0.2666 -0.90234,-0.26661 -0.26888,10e-6 -0.51042,0.0809 -0.72461,0.24268 -0.2142,0.16179 -0.36686,0.38624 -0.45801,0.67334 -0.13672,0.4375 -0.20508,0.91602 -0.20508,1.43555 l 0,3.80078 z"
       id="path4475"
       inkscape:connector-curvature="0" />
    <path
       d="m 362.61572,272.76532 c -0.45573,0.38737 -0.89437,0.66081 -1.31592,0.82031 -0.42155,0.15951 -0.87386,0.23926 -1.35693,0.23926 -0.79753,0 -1.41048,-0.19482 -1.83887,-0.58447 -0.42838,-0.38965 -0.64257,-0.88753 -0.64257,-1.49365 0,-0.35547 0.0809,-0.68018 0.24267,-0.97413 0.16178,-0.29394 0.3737,-0.52978 0.63574,-0.70752 0.26205,-0.17773 0.55713,-0.31217 0.88526,-0.40332 0.24153,-0.0638 0.60611,-0.12532 1.09375,-0.18457 0.99348,-0.11848 1.72493,-0.25976 2.19433,-0.42382 0.005,-0.16862 0.007,-0.27572 0.007,-0.32129 -10e-6,-0.5013 -0.11622,-0.85449 -0.34863,-1.05957 -0.31446,-0.27799 -0.78158,-0.41699 -1.40137,-0.417 -0.57878,10e-6 -1.00603,0.10141 -1.28174,0.3042 -0.27572,0.20281 -0.47966,0.5617 -0.61182,1.07666 l -1.20312,-0.16406 c 0.10937,-0.51497 0.28939,-0.93082 0.54004,-1.24756 0.25065,-0.31672 0.61295,-0.56054 1.08691,-0.73144 0.47396,-0.17089 1.02311,-0.25634 1.64746,-0.25635 0.61979,10e-6 1.12337,0.0729 1.51075,0.21875 0.38736,0.14584 0.67219,0.32927 0.85449,0.55029 0.18228,0.22104 0.30989,0.50017 0.38281,0.8374 0.041,0.20965 0.0615,0.5879 0.0615,1.13477 l 0,1.64063 c 0,1.14388 0.0262,1.86735 0.0786,2.17041 0.0524,0.30306 0.15608,0.59358 0.31103,0.87158 l -1.28515,0 c -0.12761,-0.25521 -0.20964,-0.55371 -0.2461,-0.89551 z m -0.10254,-2.74805 c -0.44662,0.1823 -1.11654,0.33725 -2.00976,0.46485 -0.50586,0.0729 -0.86361,0.15495 -1.07324,0.24609 -0.20964,0.0912 -0.37143,0.22445 -0.48536,0.3999 -0.11393,0.17546 -0.1709,0.37028 -0.17089,0.58448 -1e-5,0.32812 0.12418,0.60156 0.37255,0.82031 0.24837,0.21875 0.61182,0.32812 1.09034,0.32812 0.47395,0 0.8955,-0.10367 1.26464,-0.31103 0.36914,-0.20736 0.6403,-0.49105 0.81348,-0.85108 0.13216,-0.27799 0.19824,-0.68814 0.19824,-1.23047 z"
       id="path4477"
       inkscape:connector-curvature="0" />
    <path
       d="m 365.67139,273.66083 0,-7.25977 1.10058,0 0,1.01856 c 0.22786,-0.35547 0.53092,-0.64144 0.90918,-0.85791 0.37825,-0.21647 0.80892,-0.3247 1.29199,-0.32471 0.53776,10e-6 0.97868,0.11166 1.32276,0.33496 0.34407,0.22331 0.58674,0.53549 0.72803,0.93652 0.57421,-0.84765 1.3216,-1.27147 2.24218,-1.27148 0.72005,10e-6 1.27376,0.19939 1.66114,0.59814 0.38736,0.39877 0.58104,1.01287 0.58105,1.84229 l 0,4.9834 -1.22363,0 0,-4.57324 c -1e-5,-0.49219 -0.0399,-0.84652 -0.11963,-1.06299 -0.0798,-0.21647 -0.22446,-0.39078 -0.43408,-0.52295 -0.20965,-0.13216 -0.45574,-0.19824 -0.73828,-0.19824 -0.51043,0 -0.93426,0.16976 -1.27149,0.50927 -0.33724,0.33953 -0.50586,0.88298 -0.50586,1.63037 l 0,4.21778 -1.23047,0 0,-4.7168 c 0,-0.54687 -0.10026,-0.95702 -0.30078,-1.23047 -0.20052,-0.27343 -0.52865,-0.41015 -0.98437,-0.41015 -0.34636,0 -0.66651,0.0912 -0.96045,0.27343 -0.29395,0.1823 -0.507,0.4489 -0.63916,0.79981 -0.13217,0.35091 -0.19825,0.85677 -0.19824,1.51758 l 0,3.7666 z"
       id="path4479"
       inkscape:connector-curvature="0" />
    <path
       d="m 377.34717,276.44305 0,-10.04199 1.12109,0 0,0.94336 c 0.26432,-0.36913 0.56282,-0.64599 0.89551,-0.83057 0.33268,-0.18456 0.736,-0.27684 1.20996,-0.27685 0.61979,10e-6 1.16666,0.15951 1.64063,0.47852 0.47395,0.31901 0.83169,0.76904 1.07324,1.35009 0.24153,0.58106 0.3623,1.21794 0.3623,1.91065 0,0.74284 -0.13331,1.41162 -0.3999,2.00634 -0.26661,0.59473 -0.65398,1.05046 -1.16211,1.36719 -0.50814,0.31673 -1.04248,0.4751 -1.60303,0.4751 -0.41016,0 -0.77816,-0.0866 -1.104,-0.25977 -0.32585,-0.17317 -0.59359,-0.39192 -0.80322,-0.65625 l 0,3.53418 z m 1.11426,-6.37109 c -1e-5,0.93425 0.18912,1.62468 0.56738,2.07129 0.37825,0.44662 0.83626,0.66992 1.37402,0.66992 0.54687,0 1.01513,-0.23128 1.40479,-0.69385 0.38964,-0.46256 0.58446,-1.17919 0.58447,-2.1499 -10e-6,-0.92512 -0.19027,-1.61783 -0.5708,-2.07812 -0.38054,-0.46028 -0.83513,-0.69043 -1.36377,-0.69043 -0.52409,0 -0.9878,0.24496 -1.39111,0.73486 -0.40333,0.48991 -0.60499,1.20199 -0.60498,2.13623 z"
       id="path4481"
       inkscape:connector-curvature="0" />
    <path
       d="m 390.10986,271.32294 1.27149,0.15722 c -0.20053,0.74284 -0.57195,1.31934 -1.11426,1.7295 -0.54232,0.41015 -1.23503,0.61523 -2.07813,0.61523 -1.06185,0 -1.90381,-0.32699 -2.52587,-0.98096 -0.62208,-0.65397 -0.93311,-1.57112 -0.93311,-2.75146 0,-1.22135 0.31445,-2.16927 0.94336,-2.84375 0.6289,-0.67447 1.44466,-1.01171 2.44727,-1.01172 0.97069,10e-6 1.76366,0.33041 2.3789,0.99121 0.61523,0.66081 0.92285,1.5905 0.92285,2.78906 0,0.0729 -0.002,0.1823 -0.007,0.32813 l -5.41407,0 c 0.0456,0.79753 0.27116,1.4082 0.67676,1.83203 0.4056,0.42383 0.91146,0.63574 1.51758,0.63574 0.45117,0 0.83626,-0.11849 1.15527,-0.35547 0.31901,-0.23698 0.57194,-0.61523 0.75879,-1.13476 z m -4.04004,-1.98926 4.05372,0 c -0.0547,-0.61067 -0.20965,-1.06868 -0.46485,-1.37402 -0.39193,-0.47396 -0.90007,-0.71094 -1.52441,-0.71094 -0.56511,0 -1.04021,0.18913 -1.4253,0.56738 -0.38509,0.37826 -0.59814,0.88412 -0.63916,1.51758 z"
       id="path4483"
       inkscape:connector-curvature="0" />
  </g>
  <text
     xml:space="preserve"
     style="font-size:14px;font-style:normal;font-weight:normal;line-height:125%;letter-spacing:0px;word-spacing:0px;fill:#000000;fill-opacity:1;stroke:none;font-family:Sans"
     x="25.288994"
     y="24.364494"
     id="text4485"
     sodipodi:linespacing="125%"><tspan
       sodipodi:role="line"
       id="tspan4487"
       x="25.288994"
       y="24.364494">Tenni</tspan></text>
  <text
     xml:space="preserve"
     style="font-size:14px;font-style:normal;font-weight:normal;line-height:125%;letter-spacing:0px;word-spacing:0px;fill:#000000;fill-opacity:1;stroke:none;font-family:Sans"
     x="281.80423"
     y="44.190643"
     id="text4489"
     sodipodi:linespacing="125%"><tspan
       sodipodi:role="line"
       id="tspan4491"
       x="281.80423"
       y="44.190643">Tritignant</tspan></text>
  <text
     xml:space="preserve"
     style="font-size:14px;font-style:normal;font-weight:normal;line-height:125%;letter-spacing:-0.38px;word-spacing:2.46999955px;fill:#000000;fill-opacity:1;stroke:none;font-family:Sans"
     x="338.50873"
     y="77.120399"
     id="text4493"
     sodipodi:linespacing="125%"><tspan
       sodipodi:role="line"
       id="tspan4495"
       x="338.50873"
       y="77.120399"
       dx="8.7400007">Passerelle</tspan><tspan
       sodipodi:role="line"
       x="338.50873"
       y="94.620399"
       id="tspan4497">Glasbrunnen</tspan></text>
  <text
     xml:space="preserve"
     style="font-size:14px;font-style:normal;font-weight:normal;line-height:125%;letter-spacing:0px;word-spacing:0px;fill:#000000;fill-opacity:1;stroke:none;font-family:Sans"
     x="66.338318"
     y="255.14948"
     id="text4499"
     sodipodi:linespacing="125%"><tspan
       sodipodi:role="line"
       id="tspan4501"
       x="66.338318"
       y="255.14948">Passerelle</tspan><tspan
       sodipodi:role="line"
       x="66.338318"
       y="272.64948"
       id="tspan4503"
       dx="9.4299984">Elchholz</tspan></text>
  <text
     xml:space="preserve"
     style="font-size:14px;font-style:normal;font-weight:normal;line-height:125%;letter-spacing:0px;word-spacing:0px;fill:#000000;fill-opacity:1;stroke:none;font-family:Sans"
     x="31.408562"
     y="160.50111"
     id="text4505"
     sodipodi:linespacing="125%"><tspan
       sodipodi:role="line"
       id="tspan4507"
       x="31.408562"
       y="160.50111">Jorden</tspan></text>
  <g
     style="font-size:14px;font-style:normal;font-weight:normal;line-height:125%;letter-spacing:0px;word-spacing:0px;fill:#000000;fill-opacity:1;stroke:none;font-family:Sans"
     id="text4509"
     transform="matrix(0.80665122,0,0,1,22.713797,14.343009)">
    <path
       d="m 65.755768,102.75077 1.196289,-0.16406 c 0.0319,0.76563 0.175454,1.28971 0.430664,1.57226 0.255206,0.28256 0.608396,0.42383 1.05957,0.42383 0.332679,0 0.619788,-0.0763 0.861328,-0.229 0.241533,-0.15267 0.407874,-0.36003 0.499024,-0.62207 0.09114,-0.26204 0.136714,-0.68018 0.136719,-1.2544 l 0,-6.904294 1.326171,0 0,6.829104 c -5e-6,0.83854 -0.101405,1.48796 -0.304199,1.94824 -0.202805,0.46029 -0.524093,0.8112 -0.963867,1.05273 -0.439783,0.24154 -0.955896,0.36231 -1.54834,0.36231 -0.879559,0 -1.552898,-0.25293 -2.020019,-0.75879 -0.467123,-0.50586 -0.69157,-1.25781 -0.67334,-2.25586 z"
       id="path4514"
       inkscape:connector-curvature="0" />
    <path
       d="m 72.817291,101.96464 c 0,-1.3444 0.373697,-2.340166 1.121094,-2.987307 0.624347,-0.537753 1.385414,-0.806633 2.283203,-0.806641 0.998042,8e-6 1.813797,0.326993 2.447266,0.980957 0.633456,0.653978 0.950188,1.557461 0.950195,2.710451 -7e-6,0.93425 -0.140144,1.66911 -0.42041,2.20459 -0.28028,0.53548 -0.688157,0.95133 -1.223633,1.24756 -0.535487,0.29622 -1.119959,0.44433 -1.753418,0.44433 -1.016279,0 -1.83773,-0.32584 -2.464355,-0.97754 -0.626629,-0.65169 -0.939942,-1.59049 -0.939942,-2.8164 z m 1.264649,0 c -2e-6,0.92969 0.202797,1.62581 0.608398,2.08838 0.405596,0.46256 0.916013,0.69385 1.53125,0.69384 0.610673,1e-5 1.11881,-0.23242 1.524414,-0.69726 0.405593,-0.46484 0.608393,-1.1735 0.608399,-2.12598 -6e-6,-0.89778 -0.203945,-1.57795 -0.611817,-2.040525 -0.407882,-0.462559 -0.914881,-0.693841 -1.520996,-0.693848 -0.615237,7e-6 -1.125654,0.23015 -1.53125,0.69043 -0.405601,0.460293 -0.6084,1.155273 -0.608398,2.084963 z"
       id="path4516"
       inkscape:connector-curvature="0" />
    <path
       d="m 81.054596,105.59452 0,-7.259765 1.107422,0 0,1.100586 c 0.28255,-0.514967 0.543454,-0.854485 0.782715,-1.018555 0.239254,-0.164055 0.502438,-0.246086 0.78955,-0.246094 0.41471,8e-6 0.836259,0.132169 1.264649,0.396485 l -0.423828,1.141601 c -0.300786,-0.177728 -0.601567,-0.266595 -0.902344,-0.266601 -0.268883,6e-6 -0.51042,0.0809 -0.724609,0.242676 -0.214196,0.161789 -0.366865,0.386237 -0.458008,0.673337 -0.136721,0.43751 -0.20508,0.91602 -0.205078,1.43555 l 0,3.80078 z"
       id="path4518"
       inkscape:connector-curvature="0" />
    <path
       d="m 90.45401,105.59452 0,-0.91602 c -0.460292,0.72006 -1.137049,1.08008 -2.030273,1.08008 -0.578779,0 -1.110843,-0.1595 -1.596192,-0.47851 -0.485353,-0.31901 -0.861329,-0.76449 -1.12793,-1.33643 -0.266602,-0.57194 -0.399902,-1.22932 -0.399902,-1.97217 0,-0.7246 0.120768,-1.38199 0.362305,-1.972164 0.241535,-0.590163 0.60384,-1.042474 1.086914,-1.356934 0.48307,-0.314446 1.023109,-0.471672 1.620117,-0.47168 0.437496,8e-6 0.827144,0.09229 1.168945,0.276856 0.341792,0.184577 0.619787,0.424974 0.833985,0.721191 l 0,-3.595703 1.223633,0 0,10.021484 z m -3.889648,-3.62305 c -2e-6,0.92969 0.195961,1.62468 0.58789,2.08496 0.391925,0.46029 0.854489,0.69044 1.387696,0.69043 0.537756,1e-5 0.994624,-0.21988 1.370605,-0.65966 0.375971,-0.43978 0.563959,-1.11084 0.563965,-2.01319 -6e-6,-0.99348 -0.191412,-1.72265 -0.574219,-2.187497 -0.382817,-0.464838 -0.854496,-0.697259 -1.415039,-0.697266 -0.546878,7e-6 -1.003746,0.223314 -1.370605,0.669922 -0.366864,0.446621 -0.550295,1.150721 -0.550293,2.112301 z"
       id="path4520"
       inkscape:connector-curvature="0" />
    <path
       d="m 98.506744,103.25663 1.271485,0.15723 c -0.200528,0.74284 -0.571947,1.31933 -1.114258,1.72949 -0.542323,0.41015 -1.235031,0.61523 -2.078125,0.61523 -1.061852,0 -1.903811,-0.32698 -2.525879,-0.98095 -0.622071,-0.65397 -0.933106,-1.57113 -0.933105,-2.75147 -10e-7,-1.22135 0.314452,-2.169264 0.943359,-2.843749 0.628904,-0.674472 1.444659,-1.011711 2.447266,-1.011719 0.970698,8e-6 1.763666,0.330411 2.378906,0.991211 0.615227,0.660813 0.922844,1.590497 0.922851,2.789067 -7e-6,0.0729 -0.0023,0.18229 -0.0068,0.32812 l -5.414062,0 c 0.04557,0.79753 0.271157,1.40821 0.676758,1.83203 0.405596,0.42383 0.911455,0.63575 1.517578,0.63574 0.451167,1e-5 0.836258,-0.11848 1.155273,-0.35546 0.319005,-0.23698 0.571935,-0.61524 0.758789,-1.13477 z m -4.040039,-1.98926 4.053711,0 c -0.05469,-0.61067 -0.209641,-1.06868 -0.464843,-1.374021 -0.391933,-0.473952 -0.90007,-0.710931 -1.524415,-0.710938 -0.565107,7e-6 -1.040204,0.189134 -1.425293,0.567383 -0.385093,0.378256 -0.598146,0.884116 -0.63916,1.517576 z"
       id="path4522"
       inkscape:connector-curvature="0" />
    <path
       d="m 101.32999,105.59452 0,-7.259765 1.10742,0 0,1.032227 c 0.5332,-0.79752 1.30338,-1.196282 2.31055,-1.19629 0.43749,8e-6 0.83967,0.07862 1.20654,0.23584 0.36685,0.157234 0.64143,0.363451 0.82373,0.618653 0.18228,0.255214 0.30989,0.558274 0.38281,0.909179 0.0456,0.227866 0.0683,0.626636 0.0684,1.196286 l 0,4.46387 -1.23047,0 0,-4.41602 c 0,-0.50129 -0.0479,-0.87613 -0.14355,-1.12451 -0.0957,-0.248363 -0.26547,-0.446605 -0.50928,-0.594723 -0.24382,-0.148106 -0.52979,-0.222162 -0.85791,-0.222168 -0.52409,6e-6 -0.9764,0.166347 -1.35693,0.499023 -0.38054,0.332688 -0.57081,0.963868 -0.5708,1.893558 l 0,3.96484 z"
       id="path4524"
       inkscape:connector-curvature="0" />
    <path
       d="m 109.10928,105.59452 0,-7.259765 1.10743,0 0,1.100586 c 0.28255,-0.514967 0.54345,-0.854485 0.78271,-1.018555 0.23925,-0.164055 0.50244,-0.246086 0.78955,-0.246094 0.41471,8e-6 0.83626,0.132169 1.26465,0.396485 l -0.42383,1.141601 c -0.30078,-0.177728 -0.60157,-0.266595 -0.90234,-0.266601 -0.26889,6e-6 -0.51042,0.0809 -0.72461,0.242676 -0.2142,0.161789 -0.36687,0.386237 -0.45801,0.673337 -0.13672,0.43751 -0.20508,0.91602 -0.20508,1.43555 l 0,3.80078 z"
       id="path4526"
       inkscape:connector-curvature="0" />
    <path
       d="m 118.53604,104.69901 c -0.45573,0.38737 -0.89437,0.66081 -1.31592,0.82032 -0.42155,0.1595 -0.87386,0.23925 -1.35693,0.23925 -0.79753,0 -1.41048,-0.19482 -1.83887,-0.58447 -0.42838,-0.38965 -0.64258,-0.88753 -0.64258,-1.49365 0,-0.35547 0.0809,-0.68018 0.24268,-0.97412 0.16178,-0.29395 0.3737,-0.52978 0.63574,-0.70752 0.26204,-0.17773 0.55713,-0.31217 0.88526,-0.40332 0.24153,-0.0638 0.60611,-0.12532 1.09375,-0.18457 0.99348,-0.11849 1.72493,-0.25976 2.19433,-0.42383 0.005,-0.16862 0.007,-0.27571 0.007,-0.32129 -1e-5,-0.5013 -0.11622,-0.854487 -0.34863,-1.059571 -0.31446,-0.277988 -0.78158,-0.416985 -1.40137,-0.416992 -0.57878,7e-6 -1.00603,0.101406 -1.28174,0.304199 -0.27572,0.202806 -0.47966,0.561694 -0.61182,1.076664 l -1.20312,-0.16407 c 0.10937,-0.514964 0.28939,-0.930817 0.54004,-1.247555 0.25065,-0.316725 0.61295,-0.560539 1.08691,-0.731445 0.47396,-0.170891 1.02311,-0.25634 1.64746,-0.256348 0.61979,8e-6 1.12337,0.07292 1.51074,0.21875 0.38737,0.145841 0.6722,0.329272 0.8545,0.550293 0.18228,0.221035 0.30989,0.500169 0.38281,0.837403 0.041,0.209641 0.0615,0.587892 0.0615,1.134762 l 0,1.64063 c 0,1.14388 0.0262,1.86735 0.0786,2.17041 0.0524,0.30306 0.15608,0.59359 0.31103,0.87158 l -1.28515,0 c -0.12761,-0.25521 -0.20965,-0.55371 -0.2461,-0.89551 z m -0.10254,-2.74804 c -0.44662,0.18229 -1.11654,0.33724 -2.00976,0.46484 -0.50587,0.0729 -0.86361,0.15495 -1.07325,0.24609 -0.20963,0.0911 -0.37142,0.22445 -0.48535,0.39991 -0.11393,0.17545 -0.1709,0.37028 -0.1709,0.58447 0,0.32813 0.12419,0.60156 0.37256,0.82031 0.24837,0.21875 0.61182,0.32813 1.09034,0.32813 0.47395,0 0.8955,-0.10368 1.26464,-0.31104 0.36914,-0.20735 0.6403,-0.49105 0.81348,-0.85107 0.13216,-0.278 0.19824,-0.68815 0.19824,-1.23047 z"
       id="path4528"
       inkscape:connector-curvature="0" />
    <path
       d="m 121.59171,105.59452 0,-7.259765 1.10058,0 0,1.018555 c 0.22786,-0.355463 0.53092,-0.641432 0.90918,-0.857911 0.37825,-0.216464 0.80892,-0.324699 1.29199,-0.324707 0.53776,8e-6 0.97868,0.111661 1.32276,0.334961 0.34407,0.223315 0.58674,0.535489 0.72802,0.936524 0.57422,-0.847649 1.32161,-1.271477 2.24219,-1.271485 0.72004,8e-6 1.27376,0.199389 1.66113,0.598145 0.38736,0.398769 0.58105,1.012864 0.58106,1.842283 l 0,4.9834 -1.22363,0 0,-4.57324 c -1e-5,-0.49218 -0.0399,-0.84651 -0.11963,-1.06299 -0.0798,-0.216465 -0.22446,-0.390782 -0.43408,-0.522949 -0.20965,-0.132155 -0.45574,-0.198236 -0.73829,-0.198242 -0.51042,6e-6 -0.93425,0.169765 -1.27148,0.509277 -0.33725,0.339524 -0.50587,0.882984 -0.50586,1.630374 l 0,4.21777 -1.23047,0 0,-4.7168 c 0,-0.54687 -0.10026,-0.957022 -0.30078,-1.230465 -0.20052,-0.273431 -0.52865,-0.41015 -0.98437,-0.410156 -0.34636,6e-6 -0.66651,0.09115 -0.96045,0.273437 -0.29395,0.182298 -0.507,0.448899 -0.63916,0.799804 -0.13217,0.35092 -0.19825,0.85678 -0.19825,1.51758 l 0,3.7666 z"
       id="path4530"
       inkscape:connector-curvature="0" />
    <path
       d="m 133.26749,108.37675 0,-10.041995 1.12109,0 0,0.943359 c 0.26432,-0.369134 0.56282,-0.645989 0.89551,-0.830566 0.33268,-0.184563 0.736,-0.276848 1.20996,-0.276856 0.61979,8e-6 1.16666,0.159513 1.64062,0.478516 0.47396,0.319017 0.8317,0.769049 1.07325,1.350098 0.24153,0.581064 0.36229,1.217944 0.3623,1.910644 -1e-5,0.74284 -0.13331,1.41162 -0.3999,2.00635 -0.26661,0.59473 -0.65398,1.05045 -1.16211,1.36719 -0.50814,0.31673 -1.04249,0.47509 -1.60303,0.47509 -0.41016,0 -0.77816,-0.0866 -1.104,-0.25976 -0.32585,-0.17318 -0.59359,-0.39193 -0.80322,-0.65625 l 0,3.53418 z m 1.11425,-6.3711 c 0,0.93425 0.18913,1.62468 0.56739,2.07129 0.37825,0.44662 0.83626,0.66993 1.37402,0.66992 0.54687,1e-5 1.01513,-0.23128 1.40479,-0.69384 0.38964,-0.46257 0.58446,-1.1792 0.58447,-2.14991 -1e-5,-0.92512 -0.19027,-1.61783 -0.5708,-2.078121 -0.38054,-0.46028 -0.83513,-0.690423 -1.36377,-0.690429 -0.52409,6e-6 -0.9878,0.24496 -1.39112,0.734863 -0.40332,0.489917 -0.60498,1.201987 -0.60498,2.136227 z"
       id="path4532"
       inkscape:connector-curvature="0" />
    <path
       d="m 146.03018,103.25663 1.27149,0.15723 c -0.20053,0.74284 -0.57195,1.31933 -1.11426,1.72949 -0.54232,0.41015 -1.23503,0.61523 -2.07813,0.61523 -1.06185,0 -1.90381,-0.32698 -2.52588,-0.98095 -0.62207,-0.65397 -0.9331,-1.57113 -0.9331,-2.75147 0,-1.22135 0.31445,-2.169264 0.94336,-2.843749 0.6289,-0.674472 1.44466,-1.011711 2.44726,-1.011719 0.9707,8e-6 1.76367,0.330411 2.37891,0.991211 0.61523,0.660813 0.92284,1.590497 0.92285,2.789067 -1e-5,0.0729 -0.002,0.18229 -0.007,0.32812 l -5.41407,0 c 0.0456,0.79753 0.27116,1.40821 0.67676,1.83203 0.4056,0.42383 0.91146,0.63575 1.51758,0.63574 0.45117,1e-5 0.83626,-0.11848 1.15527,-0.35546 0.31901,-0.23698 0.57194,-0.61524 0.75879,-1.13477 z m -4.04004,-1.98926 4.05371,0 c -0.0547,-0.61067 -0.20964,-1.06868 -0.46484,-1.374021 -0.39193,-0.473952 -0.90007,-0.710931 -1.52441,-0.710938 -0.56511,7e-6 -1.04021,0.189134 -1.4253,0.567383 -0.38509,0.378256 -0.59814,0.884116 -0.63916,1.517576 z"
       id="path4534"
       inkscape:connector-curvature="0" />
  </g>
  <text
     xml:space="preserve"
     style="font-size:14px;font-style:normal;font-weight:normal;line-height:125%;letter-spacing:0px;word-spacing:0px;fill:#000000;fill-opacity:1;stroke:none;font-family:Sans"
     x="23.521198"
     y="81.627472"
     id="text4536"
     sodipodi:linespacing="125%"><tspan
       sodipodi:role="line"
       id="tspan4538"
       x="23.521198"
       y="81.627472">Eymatt</tspan></text>
  <g
     style="font-size:14px;font-style:normal;font-weight:normal;line-height:125%;letter-spacing:0px;word-spacing:0px;fill:#000000;fill-opacity:1;stroke:none;font-family:Sans"
     id="text4540"
     transform="matrix(0.76544098,0,0,1,32.435417,22.230374)">
    <path
       d="m 103.11229,10.946139 -2.65918,-10.02148404 1.36035,0 1.52442,6.56933594 c 0.16405,0.6881538 0.30533,1.3717469 0.42382,2.0507812 0.25521,-1.070961 0.4056,-1.6884734 0.45118,-1.852539 l 1.90722,-6.76757814 1.59961,0 1.43555,5.07226564 c 0.36001,1.2578162 0.61978,2.4404322 0.7793,3.5478515 0.12759,-0.6334615 0.29393,-1.3603488 0.49902,-2.180664 l 1.57226,-6.43945314 1.33301,0 -2.74804,10.02148404 -1.27833,0 -2.1123,-7.6357419 c -0.17774,-0.6380125 -0.28256,-1.0299392 -0.31445,-1.1757812 -0.10483,0.4602948 -0.20281,0.8522215 -0.29395,1.1757812 l -2.12597,7.6357419 z"
       id="path4545"
       inkscape:connector-curvature="0" />
    <path
       d="m 113.95409,7.3162565 c 0,-1.344396 0.37369,-2.3401633 1.12109,-2.9873047 0.62435,-0.5377532 1.38541,-0.8066332 2.2832,-0.8066406 0.99805,7.4e-6 1.8138,0.3269928 2.44727,0.980957 0.63346,0.6539772 0.95019,1.5574594 0.95019,2.7104493 0,0.9342476 -0.14014,1.6691101 -0.42041,2.2045898 -0.28028,0.5354828 -0.68815,0.9513357 -1.22363,1.2475587 -0.53549,0.296224 -1.11996,0.444336 -1.75342,0.444336 -1.01628,0 -1.83773,-0.325846 -2.46435,-0.977539 -0.62663,-0.6516915 -0.93994,-1.5904926 -0.93994,-2.8164065 z m 1.26464,0 c 0,0.9296902 0.2028,1.6258158 0.6084,2.0883789 0.4056,0.4625662 0.91602,0.6938486 1.53125,0.6938476 0.61068,10e-7 1.11881,-0.2324207 1.52442,-0.6972655 0.40559,-0.4648418 0.60839,-1.1734999 0.6084,-2.1259766 -1e-5,-0.8977819 -0.20395,-1.577957 -0.61182,-2.0405273 -0.40788,-0.462559 -0.91488,-0.6938413 -1.521,-0.6938477 -0.61523,6.4e-6 -1.12565,0.2301494 -1.53125,0.6904297 -0.4056,0.4602917 -0.6084,1.155278 -0.6084,2.0849609 z"
       id="path4547"
       inkscape:connector-curvature="0" />
    <path
       d="m 122.20506,10.946139 0,-10.02148404 1.23047,0 0,3.59570314 c 0.57422,-0.6653575 1.29883,-0.9980395 2.17383,-0.9980469 0.53776,7.4e-6 1.00488,0.1059644 1.40137,0.3178711 0.39648,0.211921 0.68017,0.5047267 0.85107,0.878418 0.17089,0.3737037 0.25634,0.9160209 0.25635,1.6269531 l 0,4.6005856 -1.23047,0 0,-4.6005856 c -1e-5,-0.6152292 -0.13331,-1.0629826 -0.3999,-1.3432617 -0.26661,-0.2802672 -0.64372,-0.4204038 -1.13135,-0.4204102 -0.36459,6.4e-6 -0.70752,0.09457 -1.02881,0.2836914 -0.32129,0.1891335 -0.55029,0.4454809 -0.68701,0.769043 -0.13672,0.3235727 -0.20508,0.7701868 -0.20508,1.3398437 l 0,3.9716794 z"
       id="path4549"
       inkscape:connector-curvature="0" />
    <path
       d="m 129.97069,10.946139 0,-10.02148404 1.23047,0 0,10.02148404 z"
       id="path4551"
       inkscape:connector-curvature="0" />
    <path
       d="m 138.08495,8.6082487 1.27148,0.1572266 c -0.20053,0.74284 -0.57195,1.3193367 -1.11426,1.7294917 -0.54232,0.410157 -1.23503,0.615235 -2.07812,0.615235 -1.06185,0 -1.90381,-0.326986 -2.52588,-0.980957 -0.62207,-0.6539701 -0.93311,-1.5711241 -0.93311,-2.751465 0,-1.2213494 0.31446,-2.1692651 0.94336,-2.84375 0.62891,-0.6744721 1.44466,-1.0117114 2.44727,-1.0117188 0.9707,7.4e-6 1.76366,0.3304107 2.3789,0.9912109 0.61523,0.6608131 0.92285,1.5904997 0.92286,2.7890625 -1e-5,0.07292 -0.002,0.1822952 -0.007,0.328125 l -5.41406,0 c 0.0456,0.7975286 0.27115,1.4082051 0.67676,1.8320313 0.40559,0.4238292 0.91145,0.6357431 1.51757,0.6357421 0.45117,10e-7 0.83626,-0.1184885 1.15528,-0.3554687 0.319,-0.2369777 0.57193,-0.6152325 0.75879,-1.1347656 z m -4.04004,-1.9892578 4.05371,0 c -0.0547,-0.6106721 -0.20964,-1.0686795 -0.46485,-1.3740234 -0.39193,-0.4739522 -0.90007,-0.7109311 -1.52441,-0.7109375 -0.56511,6.4e-6 -1.0402,0.1891338 -1.42529,0.5673828 -0.3851,0.3782606 -0.59815,0.8841195 -0.63916,1.5175781 z"
       id="path4553"
       inkscape:connector-curvature="0" />
    <path
       d="m 140.90819,10.946139 0,-7.2597653 1.10742,0 0,1.0322266 c 0.5332,-0.797519 1.30338,-1.1962817 2.31055,-1.1962891 0.43749,7.4e-6 0.83967,0.078621 1.20654,0.2358399 0.36686,0.1572335 0.64143,0.3634508 0.82373,0.6186523 0.18229,0.2552146 0.30989,0.5582742 0.38281,0.9091797 0.0456,0.22787 0.0684,0.6266326 0.0684,1.196289 l 0,4.4638669 -1.23047,0 0,-4.4160153 c 0,-0.5012972 -0.0479,-0.876134 -0.14355,-1.1245117 -0.0957,-0.2483666 -0.26547,-0.4466086 -0.50928,-0.5947266 -0.24382,-0.1481057 -0.52979,-0.2221616 -0.85791,-0.2221679 -0.52409,6.3e-6 -0.9764,0.1663473 -1.35693,0.4990234 -0.38054,0.3326878 -0.57081,0.9638721 -0.5708,1.8935547 l 0,3.9648434 z"
       id="path4555"
       inkscape:connector-curvature="0" />
    <path
       d="m 148.68748,10.946139 0,-7.2597653 1.10743,0 0,1.1005859 c 0.28255,-0.5149672 0.54345,-0.8544851 0.78271,-1.0185546 0.23926,-0.1640552 0.50244,-0.2460864 0.78955,-0.2460938 0.41471,7.4e-6 0.83626,0.1321688 1.26465,0.3964844 l -0.42383,1.1416015 c -0.30078,-0.1777283 -0.60156,-0.2665954 -0.90234,-0.2666015 -0.26888,6.1e-6 -0.51042,0.080898 -0.72461,0.2426758 -0.2142,0.1617896 -0.36686,0.386236 -0.45801,0.6733398 -0.13672,0.4375048 -0.20508,0.91602 -0.20508,1.4355469 l 0,3.8007809 z"
       id="path4557"
       inkscape:connector-curvature="0" />
    <path
       d="m 158.11424,10.050632 c -0.45573,0.38737 -0.89437,0.660807 -1.31592,0.820312 -0.42155,0.159505 -0.87386,0.239258 -1.35693,0.239258 -0.79753,0 -1.41048,-0.194824 -1.83887,-0.584473 -0.42838,-0.389647 -0.64257,-0.8875311 -0.64257,-1.4936522 0,-0.3554664 0.0809,-0.6801732 0.24267,-0.9741211 0.16178,-0.2939421 0.3737,-0.5297817 0.63574,-0.7075195 0.26205,-0.1777306 0.55713,-0.3121706 0.88526,-0.4033203 0.24153,-0.063798 0.60611,-0.1253214 1.09375,-0.1845703 0.99348,-0.1184853 1.72493,-0.2597612 2.19433,-0.4238281 0.005,-0.1686151 0.007,-0.2757113 0.007,-0.3212891 -1e-5,-0.5012967 -0.11622,-0.8544864 -0.34863,-1.0595703 -0.31446,-0.2779885 -0.78158,-0.4169858 -1.40137,-0.4169922 -0.57878,6.4e-6 -1.00603,0.101406 -1.28174,0.3041992 -0.27572,0.2028054 -0.47966,0.5616918 -0.61182,1.0766602 l -1.20312,-0.1640625 c 0.10937,-0.5149683 0.28939,-0.9308207 0.54004,-1.2475586 0.25065,-0.316725 0.61295,-0.5605399 1.08691,-0.7314453 0.47396,-0.1708911 1.02311,-0.2563403 1.64746,-0.2563477 0.61979,7.4e-6 1.12337,0.072924 1.51075,0.21875 0.38736,0.1458404 0.67219,0.3292712 0.85449,0.550293 0.18228,0.2210351 0.30989,0.5001689 0.38281,0.8374023 0.041,0.209641 0.0615,0.5878959 0.0615,1.1347656 l 0,1.640625 c 0,1.1438822 0.0262,1.8673515 0.0786,2.1704099 0.0524,0.303061 0.15608,0.593588 0.31103,0.871582 l -1.28515,0 c -0.12761,-0.255208 -0.20964,-0.55371 -0.2461,-0.895507 z M 158.0117,7.3025846 c -0.44662,0.1822952 -1.11654,0.3372429 -2.00976,0.4648438 -0.50586,0.07292 -0.86361,0.1549509 -1.07324,0.2460937 -0.20964,0.091149 -0.37143,0.2244494 -0.48536,0.3999024 -0.11393,0.1754581 -0.1709,0.3702821 -0.17089,0.5844726 -1e-5,0.3281267 0.12418,0.6015639 0.37255,0.8203125 0.24837,0.2187514 0.61182,0.3281254 1.09034,0.3281254 0.47395,0 0.8955,-0.103678 1.26464,-0.3110355 0.36914,-0.2073555 0.6403,-0.4910466 0.81348,-0.8510742 0.13216,-0.2779926 0.19824,-0.6881484 0.19824,-1.2304688 z"
       id="path4559"
       inkscape:connector-curvature="0" />
    <path
       d="m 161.16991,10.946139 0,-7.2597653 1.10058,0 0,1.0185547 c 0.22786,-0.3554622 0.53092,-0.6414319 0.90918,-0.8579102 0.37825,-0.216464 0.80892,-0.3246996 1.29199,-0.324707 0.53776,7.4e-6 0.97868,0.111661 1.32276,0.3349609 0.34407,0.2233142 0.58674,0.5354884 0.72803,0.9365235 0.57421,-0.8476493 1.3216,-1.271477 2.24218,-1.2714844 0.72005,7.4e-6 1.27376,0.1993887 1.66114,0.5981445 0.38736,0.3987695 0.58104,1.0128639 0.58105,1.8422852 l 0,4.9833981 -1.22363,0 0,-4.5732419 c -1e-5,-0.4921824 -0.0399,-0.8465115 -0.11963,-1.0629882 -0.0798,-0.2164655 -0.22446,-0.3907818 -0.43408,-0.5229493 -0.20965,-0.1321551 -0.45574,-0.1982358 -0.73828,-0.1982421 -0.51043,6.3e-6 -0.93426,0.1697653 -1.27149,0.5092773 -0.33724,0.3395237 -0.50586,0.8829802 -0.50586,1.6303711 l 0,4.2177731 -1.23047,0 0,-4.7167965 c 0,-0.5468698 -0.10026,-0.9570256 -0.30078,-1.2304688 -0.20052,-0.2734313 -0.52865,-0.4101499 -0.98437,-0.4101562 -0.34636,6.3e-6 -0.66651,0.091152 -0.96045,0.2734375 -0.29395,0.1822975 -0.507,0.4488988 -0.63916,0.7998046 -0.13217,0.3509164 -0.19825,0.8567753 -0.19824,1.5175782 l 0,3.7666012 z"
       id="path4561"
       inkscape:connector-curvature="0" />
    <path
       d="m 172.84569,13.728366 0,-10.0419923 1.12109,0 0,0.9433594 c 0.26432,-0.369134 0.56282,-0.6459891 0.89551,-0.8305664 0.33268,-0.184563 0.736,-0.2768481 1.20996,-0.2768555 0.61979,7.4e-6 1.16666,0.1595125 1.64063,0.4785156 0.47395,0.3190171 0.83169,0.7690492 1.07324,1.3500977 0.24153,0.5810597 0.3623,1.2179406 0.3623,1.9106445 0,0.7428415 -0.13331,1.4116234 -0.3999,2.0063477 -0.26661,0.5947276 -0.65398,1.0504563 -1.16211,1.3671873 -0.50814,0.316732 -1.04248,0.475098 -1.60303,0.475098 -0.41016,0 -0.77816,-0.08659 -1.104,-0.259766 -0.32585,-0.173177 -0.59359,-0.391926 -0.80322,-0.65625 l 0,3.53418 z m 1.11426,-6.3710939 c -1e-5,0.9342475 0.18912,1.6246765 0.56738,2.0712891 0.37825,0.4466157 0.83626,0.6699228 1.37402,0.6699218 0.54687,10e-7 1.01513,-0.2312814 1.40479,-0.6938476 0.38964,-0.4625631 0.58446,-1.1791965 0.58447,-2.1499023 -1e-5,-0.9251256 -0.19027,-1.6178332 -0.5708,-2.078125 -0.38054,-0.4602802 -0.83513,-0.6904232 -1.36377,-0.6904297 -0.52409,6.5e-6 -0.9878,0.2449606 -1.39111,0.7348633 -0.40333,0.4899141 -0.60499,1.2019902 -0.60498,2.1362304 z"
       id="path4563"
       inkscape:connector-curvature="0" />
    <path
       d="m 185.60838,8.6082487 1.27149,0.1572266 c -0.20053,0.74284 -0.57195,1.3193367 -1.11426,1.7294917 -0.54232,0.410157 -1.23503,0.615235 -2.07813,0.615235 -1.06185,0 -1.90381,-0.326986 -2.52587,-0.980957 -0.62208,-0.6539701 -0.93311,-1.5711241 -0.93311,-2.751465 0,-1.2213494 0.31445,-2.1692651 0.94336,-2.84375 0.6289,-0.6744721 1.44466,-1.0117114 2.44727,-1.0117188 0.97069,7.4e-6 1.76366,0.3304107 2.3789,0.9912109 0.61523,0.6608131 0.92285,1.5904997 0.92285,2.7890625 0,0.07292 -0.002,0.1822952 -0.007,0.328125 l -5.41407,0 c 0.0456,0.7975286 0.27116,1.4082051 0.67676,1.8320313 0.4056,0.4238292 0.91146,0.6357431 1.51758,0.6357421 0.45117,10e-7 0.83626,-0.1184885 1.15527,-0.3554687 0.31901,-0.2369777 0.57194,-0.6152325 0.75879,-1.1347656 z m -4.04004,-1.9892578 4.05372,0 c -0.0547,-0.6106721 -0.20965,-1.0686795 -0.46485,-1.3740234 -0.39193,-0.4739522 -0.90007,-0.7109311 -1.52441,-0.7109375 -0.56511,6.4e-6 -1.04021,0.1891338 -1.4253,0.5673828 -0.38509,0.3782606 -0.59814,0.8841195 -0.63916,1.5175781 z"
       id="path4565"
       inkscape:connector-curvature="0" />
  </g>
  <g
     style="font-size:14px;font-style:normal;font-weight:normal;line-height:125%;letter-spacing:0px;word-spacing:0px;fill:#000000;fill-opacity:1;stroke:none;font-family:Sans"
     id="text4567"
     transform="matrix(0.69341969,0,0,1,58.35983,20.343009)">
    <path
       d="m 186.493,-0.32152498 -2.65918,-10.02148402 1.36035,0 1.52441,6.5693356 c 0.16406,0.6881538 0.30534,1.3717469 0.42383,2.0507812 0.2552,-1.070961 0.4056,-1.6884734 0.45117,-1.852539 l 1.90723,-6.7675778 1.59961,0 1.43554,5.0722653 c 0.36002,1.2578162 0.61979,2.4404322 0.7793,3.5478515 0.1276,-0.6334615 0.29394,-1.3603488 0.49903,-2.180664 l 1.57226,-6.4394528 1.33301,0 -2.74805,10.02148402 -1.27832,0 -2.1123,-7.63574222 c -0.17774,-0.6380125 -0.28256,-1.0299392 -0.31446,-1.1757812 -0.10482,0.4602948 -0.2028,0.8522215 -0.29394,1.1757812 l -2.12598,7.63574222 z"
       id="path4572"
       inkscape:connector-curvature="0" />
    <path
       d="m 197.33479,-3.9514078 c 0,-1.3443961 0.3737,-2.3401633 1.1211,-2.9873047 0.62434,-0.5377532 1.38541,-0.8066332 2.2832,-0.8066406 0.99804,7.4e-6 1.8138,0.3269928 2.44727,0.980957 0.63345,0.6539772 0.95018,1.5574593 0.95019,2.7104492 -1e-5,0.9342476 -0.14014,1.6691102 -0.42041,2.2045899 -0.28028,0.5354828 -0.68816,0.9513352 -1.22363,1.24755858 -0.53549,0.29622395 -1.11996,0.44433578 -1.75342,0.44433594 -1.01628,-1.6e-7 -1.83773,-0.32584619 -2.46436,-0.97753902 -0.62662,-0.6516913 -0.93994,-1.5904924 -0.93994,-2.8164063 z m 1.26465,0 c 0,0.9296902 0.2028,1.6258158 0.6084,2.0883789 0.4056,0.4625662 0.91601,0.6938485 1.53125,0.6938477 0.61067,8e-7 1.11881,-0.2324208 1.52441,-0.6972657 0.4056,-0.4648417 0.6084,-1.1734998 0.6084,-2.1259765 0,-0.8977819 -0.20394,-1.577957 -0.61181,-2.0405274 -0.40789,-0.4625589 -0.91488,-0.6938412 -1.521,-0.6938476 -0.61524,6.4e-6 -1.12565,0.2301494 -1.53125,0.6904297 -0.4056,0.4602917 -0.6084,1.155278 -0.6084,2.0849609 z"
       id="path4574"
       inkscape:connector-curvature="0" />
    <path
       d="m 205.58577,-0.32152498 0,-10.02148402 1.23047,0 0,3.5957028 c 0.57421,-0.6653575 1.29882,-0.9980395 2.17383,-0.9980469 0.53775,7.4e-6 1.00487,0.1059643 1.40136,0.3178711 0.39648,0.2119209 0.68017,0.5047266 0.85108,0.878418 0.17089,0.3737037 0.25634,0.9160209 0.25635,1.6269531 l 0,4.60058592 -1.23047,0 0,-4.60058592 c -1e-5,-0.6152292 -0.13331,-1.0629826 -0.39991,-1.3432617 -0.2666,-0.2802672 -0.64372,-0.4204038 -1.13134,-0.4204102 -0.36459,6.4e-6 -0.70753,0.09457 -1.02881,0.2836914 -0.32129,0.1891335 -0.5503,0.4454809 -0.68701,0.769043 -0.13672,0.3235727 -0.20508,0.7701868 -0.20508,1.3398437 l 0,3.97167972 z"
       id="path4576"
       inkscape:connector-curvature="0" />
    <path
       d="m 213.35139,-0.32152498 0,-10.02148402 1.23047,0 0,10.02148402 z"
       id="path4578"
       inkscape:connector-curvature="0" />
    <path
       d="m 221.46565,-2.6594156 1.27149,0.1572266 c -0.20053,0.7428399 -0.57195,1.3193368 -1.11426,1.72949215 -0.54232,0.41015629 -1.23503,0.61523421 -2.07813,0.61523437 -1.06185,-1.6e-7 -1.90381,-0.32698551 -2.52587,-0.98095702 -0.62208,-0.6539699 -0.93311,-1.5711239 -0.93311,-2.7514649 0,-1.2213493 0.31445,-2.169265 0.94336,-2.84375 0.6289,-0.674472 1.44466,-1.0117113 2.44726,-1.0117187 0.9707,7.4e-6 1.76367,0.3304107 2.37891,0.9912109 0.61523,0.6608131 0.92285,1.5904997 0.92285,2.7890625 0,0.07292 -0.002,0.1822952 -0.007,0.328125 l -5.41407,0 c 0.0456,0.7975286 0.27116,1.4082051 0.67676,1.8320313 0.4056,0.4238292 0.91146,0.635743 1.51758,0.6357422 0.45117,8e-7 0.83626,-0.1184886 1.15527,-0.3554688 0.31901,-0.2369777 0.57194,-0.6152325 0.75879,-1.1347656 z m -4.04004,-1.9892578 4.05371,0 c -0.0547,-0.6106722 -0.20964,-1.0686795 -0.46484,-1.3740235 -0.39193,-0.4739521 -0.90007,-0.710931 -1.52441,-0.7109375 -0.56511,6.5e-6 -1.04021,0.1891339 -1.4253,0.5673829 -0.38509,0.3782606 -0.59814,0.8841195 -0.63916,1.5175781 z"
       id="path4580"
       inkscape:connector-curvature="0" />
    <path
       d="m 224.28889,-0.32152498 0,-7.25976562 1.10743,0 0,1.0322266 c 0.5332,-0.7975191 1.30338,-1.1962817 2.31054,-1.1962891 0.4375,7.4e-6 0.83968,0.078621 1.20655,0.2358398 0.36685,0.1572336 0.64143,0.3634509 0.82373,0.6186524 0.18228,0.2552146 0.30989,0.5582742 0.38281,0.9091797 0.0456,0.22787 0.0684,0.6266326 0.0684,1.196289 l 0,4.46386722 -1.23047,0 0,-4.41601562 c -10e-6,-0.5012972 -0.0479,-0.876134 -0.14355,-1.1245117 -0.0957,-0.2483666 -0.26547,-0.4466086 -0.50928,-0.5947266 -0.24382,-0.1481057 -0.52979,-0.2221616 -0.85791,-0.222168 -0.52409,6.4e-6 -0.97641,0.1663474 -1.35694,0.4990235 -0.38053,0.3326878 -0.5708,0.9638721 -0.5708,1.8935547 l 0,3.96484372 z"
       id="path4582"
       inkscape:connector-curvature="0" />
    <path
       d="m 231.58968,-2.4885172 1.21679,-0.1914062 c 0.0684,0.4876321 0.25863,0.8613296 0.5708,1.1210937 0.31218,0.2597666 0.74854,0.3896493 1.30909,0.3896485 0.5651,8e-7 0.98437,-0.1150707 1.25781,-0.3452149 0.27343,-0.2301418 0.41015,-0.500161 0.41015,-0.8100586 0,-0.2779925 -0.12077,-0.4967423 -0.3623,-0.65625 -0.16862,-0.1093722 -0.5879,-0.2483695 -1.25781,-0.4169922 -0.90235,-0.2278612 -1.52784,-0.4249639 -1.87647,-0.5913085 -0.34863,-0.1663374 -0.61295,-0.3964804 -0.79297,-0.6904297 -0.18001,-0.2939407 -0.27002,-0.6186474 -0.27002,-0.9741211 0,-0.3235621 0.0741,-0.6232037 0.22217,-0.8989258 0.14811,-0.2757096 0.34977,-0.5047133 0.60498,-0.6870117 0.19141,-0.141269 0.45231,-0.2608978 0.78272,-0.3588867 0.3304,-0.097974 0.68473,-0.1469653 1.06299,-0.1469727 0.56965,7.4e-6 1.06982,0.082039 1.50048,0.2460937 0.43066,0.1640696 0.74853,0.3862373 0.95362,0.666504 0.20507,0.2802796 0.34635,0.6551165 0.42383,1.1245117 l -1.20313,0.1640625 c -0.0547,-0.3736923 -0.21306,-0.6653587 -0.4751,-0.875 -0.26205,-0.2096291 -0.63233,-0.3144467 -1.11084,-0.3144532 -0.5651,6.5e-6 -0.96842,0.093431 -1.20996,0.2802735 -0.24154,0.1868549 -0.3623,0.4056047 -0.3623,0.65625 0,0.1595105 0.0501,0.3030651 0.15039,0.430664 0.10026,0.1321664 0.25748,0.2415413 0.47168,0.328125 0.12304,0.045578 0.48535,0.1503952 1.08691,0.3144532 0.87044,0.232426 1.4777,0.4226928 1.82178,0.5708008 0.34407,0.1481156 0.61409,0.3634474 0.81006,0.645996 0.19595,0.282555 0.29394,0.6334661 0.29394,1.0527344 0,0.410158 -0.11963,0.7963881 -0.35888,1.1586914 -0.23927,0.36230533 -0.58448,0.64257849 -1.03565,0.84082034 -0.45117,0.19824212 -0.96159,0.29736312 -1.53125,0.29736328 -0.94336,-1.6e-7 -1.66227,-0.19596351 -2.15674,-0.58789062 -0.49446,-0.3919263 -0.81006,-0.9729804 -0.94677,-1.7431641 z"
       id="path4584"
       inkscape:connector-curvature="0" />
    <path
       d="m 241.76839,-1.4221109 0.17773,1.08691405 c -0.34636,0.0729166 -0.65625,0.1093749 -0.92969,0.109375 -0.44661,-1e-7 -0.79297,-0.0706381 -1.03906,-0.21191407 -0.24609,-0.14127578 -0.41927,-0.32698523 -0.51953,-0.5571289 -0.10026,-0.23014228 -0.15039,-0.71435408 -0.15039,-1.45263668 l 0,-4.1767579 -0.90234,0 0,-0.9570312 0.90234,0 0,-1.7978516 1.22363,-0.7382808 0,2.5361324 1.23731,0 0,0.9570312 -1.23731,0 0,4.2451172 c 0,0.3509132 0.0216,0.5764989 0.0649,0.6767578 0.0433,0.1002617 0.11393,0.1800143 0.21192,0.2392579 0.098,0.059246 0.23811,0.088868 0.42041,0.088867 0.13671,1.1e-6 0.31673,-0.015949 0.54004,-0.047852 z"
       id="path4586"
       inkscape:connector-curvature="0" />
    <path
       d="m 242.951,-0.32152498 0,-7.25976562 1.10743,0 0,1.1005859 c 0.28255,-0.5149672 0.54345,-0.8544851 0.78271,-1.0185547 0.23926,-0.1640551 0.50244,-0.2460863 0.78955,-0.2460937 0.41471,7.4e-6 0.83626,0.1321687 1.26465,0.3964844 l -0.42383,1.1416015 c -0.30078,-0.1777283 -0.60156,-0.2665954 -0.90234,-0.2666015 -0.26889,6.1e-6 -0.51042,0.080898 -0.72461,0.2426758 -0.2142,0.1617896 -0.36687,0.3862359 -0.45801,0.6733398 -0.13672,0.4375048 -0.20508,0.9160199 -0.20508,1.4355469 l 0,3.80078122 z"
       id="path4588"
       inkscape:connector-curvature="0" />
    <path
       d="m 252.37776,-1.2170328 c -0.45573,0.38737031 -0.89437,0.66080754 -1.31592,0.82031251 -0.42155,0.15950512 -0.87386,0.23925765 -1.35693,0.23925781 -0.79753,-1.6e-7 -1.41048,-0.19482419 -1.83887,-0.58447265 -0.42838,-0.38964767 -0.64258,-0.88753127 -0.64258,-1.49365237 0,-0.3554665 0.0809,-0.6801732 0.24268,-0.9741211 0.16178,-0.2939421 0.3737,-0.5297817 0.63574,-0.7075195 0.26205,-0.1777306 0.55713,-0.3121706 0.88526,-0.4033203 0.24153,-0.063798 0.60611,-0.1253214 1.09375,-0.1845703 0.99348,-0.1184853 1.72493,-0.2597612 2.19433,-0.4238282 0.005,-0.168615 0.007,-0.2757112 0.007,-0.321289 -1e-5,-0.5012967 -0.11622,-0.8544864 -0.34863,-1.0595703 -0.31446,-0.2779886 -0.78158,-0.4169858 -1.40137,-0.4169922 -0.57878,6.4e-6 -1.00603,0.101406 -1.28174,0.3041992 -0.27572,0.2028054 -0.47966,0.5616917 -0.61182,1.0766602 l -1.20312,-0.1640625 c 0.10937,-0.5149683 0.28939,-0.9308207 0.54004,-1.2475586 0.25065,-0.3167251 0.61295,-0.5605399 1.08691,-0.7314453 0.47396,-0.1708911 1.02311,-0.2563403 1.64746,-0.2563477 0.61979,7.4e-6 1.12337,0.072924 1.51075,0.21875 0.38736,0.1458404 0.67219,0.3292712 0.85449,0.550293 0.18228,0.221035 0.30989,0.5001689 0.38281,0.8374023 0.041,0.209641 0.0615,0.5878959 0.0615,1.1347656 l 0,1.640625 c 0,1.1438821 0.0262,1.8673515 0.0786,2.1704102 0.0524,0.30306046 0.15608,0.59358751 0.31103,0.87158202 l -1.28515,0 c -0.12761,-0.25520808 -0.20965,-0.55371038 -0.2461,-0.89550782 z m -0.10254,-2.7480469 c -0.44662,0.1822952 -1.11654,0.3372429 -2.00976,0.4648438 -0.50587,0.07292 -0.86361,0.1549509 -1.07325,0.2460937 -0.20963,0.091149 -0.37142,0.2244494 -0.48535,0.3999024 -0.11393,0.1754581 -0.1709,0.3702821 -0.1709,0.5844726 0,0.3281267 0.12419,0.6015639 0.37256,0.8203125 0.24837,0.2187509 0.61182,0.3281258 1.09034,0.328125 0.47395,8e-7 0.8955,-0.1036774 1.26464,-0.3110351 0.36914,-0.2073555 0.6403,-0.4910466 0.81348,-0.8510742 0.13216,-0.2779926 0.19824,-0.6881484 0.19824,-1.2304688 z"
       id="path4590"
       inkscape:connector-curvature="0" />
    <path
       d="m 254.94124,-2.4885172 1.2168,-0.1914062 c 0.0683,0.4876321 0.25862,0.8613296 0.5708,1.1210937 0.31217,0.2597666 0.74853,0.3896493 1.30908,0.3896485 0.5651,8e-7 0.98437,-0.1150707 1.25781,-0.3452149 0.27343,-0.2301418 0.41015,-0.500161 0.41016,-0.8100586 -1e-5,-0.2779925 -0.12078,-0.4967423 -0.36231,-0.65625 -0.16862,-0.1093722 -0.58789,-0.2483695 -1.25781,-0.4169922 -0.90235,-0.2278612 -1.52783,-0.4249639 -1.87647,-0.5913085 -0.34863,-0.1663374 -0.61295,-0.3964804 -0.79296,-0.6904297 -0.18002,-0.2939407 -0.27002,-0.6186474 -0.27002,-0.9741211 0,-0.3235621 0.074,-0.6232037 0.22216,-0.8989258 0.14812,-0.2757096 0.34978,-0.5047133 0.60498,-0.6870117 0.19141,-0.141269 0.45231,-0.2608978 0.78272,-0.3588867 0.3304,-0.097974 0.68473,-0.1469653 1.06299,-0.1469727 0.56966,7.4e-6 1.06982,0.082039 1.50049,0.2460937 0.43066,0.1640696 0.74853,0.3862373 0.95361,0.666504 0.20507,0.2802796 0.34635,0.6551165 0.42383,1.1245117 l -1.20313,0.1640625 c -0.0547,-0.3736923 -0.21306,-0.6653587 -0.47509,-0.875 -0.26205,-0.2096291 -0.63233,-0.3144467 -1.11084,-0.3144532 -0.56511,6.5e-6 -0.96843,0.093431 -1.20997,0.2802735 -0.24153,0.1868549 -0.3623,0.4056047 -0.3623,0.65625 0,0.1595105 0.0501,0.3030651 0.15039,0.430664 0.10026,0.1321664 0.25749,0.2415413 0.47168,0.328125 0.12304,0.045578 0.48535,0.1503952 1.08691,0.3144532 0.87044,0.232426 1.4777,0.4226928 1.82178,0.5708008 0.34407,0.1481156 0.61409,0.3634474 0.81006,0.645996 0.19596,0.282555 0.29394,0.6334661 0.29395,1.0527344 -1e-5,0.410158 -0.11964,0.7963881 -0.35889,1.1586914 -0.23927,0.36230533 -0.58448,0.64257849 -1.03565,0.84082034 -0.45117,0.19824212 -0.96159,0.29736312 -1.53125,0.29736328 -0.94336,-1.6e-7 -1.66227,-0.19596351 -2.15673,-0.58789062 -0.49447,-0.3919263 -0.81006,-0.9729804 -0.94678,-1.7431641 z"
       id="path4592"
       inkscape:connector-curvature="0" />
    <path
       d="m 261.94124,-2.4885172 1.2168,-0.1914062 c 0.0683,0.4876321 0.25862,0.8613296 0.5708,1.1210937 0.31217,0.2597666 0.74853,0.3896493 1.30908,0.3896485 0.5651,8e-7 0.98437,-0.1150707 1.25781,-0.3452149 0.27343,-0.2301418 0.41015,-0.500161 0.41016,-0.8100586 -1e-5,-0.2779925 -0.12078,-0.4967423 -0.36231,-0.65625 -0.16862,-0.1093722 -0.58789,-0.2483695 -1.25781,-0.4169922 -0.90235,-0.2278612 -1.52783,-0.4249639 -1.87647,-0.5913085 -0.34863,-0.1663374 -0.61295,-0.3964804 -0.79296,-0.6904297 -0.18002,-0.2939407 -0.27002,-0.6186474 -0.27002,-0.9741211 0,-0.3235621 0.074,-0.6232037 0.22216,-0.8989258 0.14812,-0.2757096 0.34978,-0.5047133 0.60498,-0.6870117 0.19141,-0.141269 0.45231,-0.2608978 0.78272,-0.3588867 0.3304,-0.097974 0.68473,-0.1469653 1.06299,-0.1469727 0.56966,7.4e-6 1.06982,0.082039 1.50049,0.2460937 0.43066,0.1640696 0.74853,0.3862373 0.95361,0.666504 0.20507,0.2802796 0.34635,0.6551165 0.42383,1.1245117 l -1.20313,0.1640625 c -0.0547,-0.3736923 -0.21306,-0.6653587 -0.47509,-0.875 -0.26205,-0.2096291 -0.63233,-0.3144467 -1.11084,-0.3144532 -0.56511,6.5e-6 -0.96843,0.093431 -1.20997,0.2802735 -0.24153,0.1868549 -0.3623,0.4056047 -0.3623,0.65625 0,0.1595105 0.0501,0.3030651 0.15039,0.430664 0.10026,0.1321664 0.25749,0.2415413 0.47168,0.328125 0.12304,0.045578 0.48535,0.1503952 1.08691,0.3144532 0.87044,0.232426 1.4777,0.4226928 1.82178,0.5708008 0.34407,0.1481156 0.61409,0.3634474 0.81006,0.645996 0.19596,0.282555 0.29394,0.6334661 0.29395,1.0527344 -1e-5,0.410158 -0.11964,0.7963881 -0.35889,1.1586914 -0.23927,0.36230533 -0.58448,0.64257849 -1.03565,0.84082034 -0.45117,0.19824212 -0.96159,0.29736312 -1.53125,0.29736328 -0.94336,-1.6e-7 -1.66227,-0.19596351 -2.15673,-0.58789062 -0.49447,-0.3919263 -0.81006,-0.9729804 -0.94678,-1.7431641 z"
       id="path4594"
       inkscape:connector-curvature="0" />
    <path
       d="m 274.40315,-2.6594156 1.27149,0.1572266 c -0.20053,0.7428399 -0.57195,1.3193368 -1.11426,1.72949215 -0.54232,0.41015629 -1.23503,0.61523421 -2.07813,0.61523437 -1.06185,-1.6e-7 -1.90381,-0.32698551 -2.52587,-0.98095702 -0.62208,-0.6539699 -0.93311,-1.5711239 -0.93311,-2.7514649 0,-1.2213493 0.31445,-2.169265 0.94336,-2.84375 0.6289,-0.674472 1.44466,-1.0117113 2.44726,-1.0117187 0.9707,7.4e-6 1.76367,0.3304107 2.37891,0.9912109 0.61523,0.6608131 0.92285,1.5904997 0.92285,2.7890625 0,0.07292 -0.002,0.1822952 -0.007,0.328125 l -5.41407,0 c 0.0456,0.7975286 0.27116,1.4082051 0.67676,1.8320313 0.4056,0.4238292 0.91146,0.635743 1.51758,0.6357422 0.45117,8e-7 0.83626,-0.1184886 1.15527,-0.3554688 0.31901,-0.2369777 0.57194,-0.6152325 0.75879,-1.1347656 z m -4.04004,-1.9892578 4.05371,0 c -0.0547,-0.6106722 -0.20964,-1.0686795 -0.46484,-1.3740235 -0.39193,-0.4739521 -0.90007,-0.710931 -1.52441,-0.7109375 -0.56511,6.5e-6 -1.04021,0.1891339 -1.4253,0.5673829 -0.38509,0.3782606 -0.59814,0.8841195 -0.63916,1.5175781 z"
       id="path4596"
       inkscape:connector-curvature="0" />
  </g>
</svg>
